<mxfile host="app.diagrams.net" modified="2023-04-03T00:45:54.196Z" agent="Mozilla/5.0 (Macintosh; Intel Mac OS X 10_15_7) AppleWebKit/605.1.15 (KHTML, like Gecko) Version/16.3 Safari/605.1.15" etag="BBfVRhmxBqGXTme8eQQx" version="21.1.2" type="github">
  <diagram id="LF0kF3AzaYWGy7LwQX23" name="envoy@istio-conf-eg-outbound.drawio.svg">
    <mxGraphModel dx="2155" dy="3561" grid="1" gridSize="10" guides="1" tooltips="1" connect="1" arrows="1" fold="1" page="0" pageScale="1" pageWidth="850" pageHeight="1100" math="0" shadow="0">
      <root>
        <mxCell id="0" />
        <mxCell id="1" parent="0" />
        <mxCell id="2" value="&lt;font color=&quot;#000000&quot;&gt;listener&lt;br&gt;(in&amp;nbsp;&lt;/font&gt;dynamic_listeners&lt;font color=&quot;#000000&quot;&gt;)&lt;/font&gt;&lt;br&gt;&lt;font color=&quot;#000000&quot;&gt;name: 0.0.0.0_8080&lt;/font&gt;&lt;br&gt;&lt;font color=&quot;#ff0000&quot;&gt;bind_to_port: false&lt;/font&gt;" style="rounded=1;whiteSpace=wrap;html=1;fillColor=#f5f5f5;strokeColor=#666666;fontColor=#333333;labelPosition=center;verticalLabelPosition=top;align=center;verticalAlign=bottom;spacingBottom=-50;labelBackgroundColor=default;" parent="1" vertex="1">
          <mxGeometry x="-610" y="-1689" width="2341" height="1149.38" as="geometry" />
        </mxCell>
        <mxCell id="3" value="&lt;b style=&quot;color: rgb(0 , 0 , 0)&quot;&gt;Listener&lt;/b&gt;&lt;br&gt;&lt;font color=&quot;#000000&quot;&gt;&lt;b&gt;(in dynamic_listeners)&lt;/b&gt;&lt;/font&gt;&lt;br&gt;&lt;br&gt;&lt;font color=&quot;#000000&quot;&gt;name: virtualOutbound&lt;/font&gt;&lt;br style=&quot;color: rgb(0 , 0 , 0)&quot;&gt;&lt;font color=&quot;#000000&quot;&gt;port: 15001&lt;br&gt;&lt;/font&gt;&quot;address&quot;: &quot;0.0.0.0&quot;&lt;br&gt;&lt;font color=&quot;#000000&quot;&gt;use_original_dst: true&lt;br&gt;traffic_direction: OUTBOUND&lt;br&gt;&lt;/font&gt;" style="rounded=1;whiteSpace=wrap;html=1;fillColor=#f5f5f5;strokeColor=#666666;fontColor=#333333;labelPosition=center;verticalLabelPosition=top;align=center;verticalAlign=bottom;spacingBottom=-120;spacingTop=0;" parent="1" vertex="1">
          <mxGeometry x="229.38" y="-220" width="1160" height="500" as="geometry" />
        </mxCell>
        <mxCell id="4" value="&lt;font color=&quot;#000000&quot;&gt;filter_chains&lt;/font&gt;" style="rounded=1;whiteSpace=wrap;html=1;fillColor=none;strokeColor=#666666;fontColor=#333333;labelPosition=center;verticalLabelPosition=top;align=center;verticalAlign=bottom;spacingBottom=-30;" parent="1" vertex="1">
          <mxGeometry x="319.38" y="-70" width="1020.62" height="330" as="geometry" />
        </mxCell>
        <mxCell id="5" value="&lt;font color=&quot;#000000&quot;&gt;filter_chain&lt;/font&gt;&lt;br&gt;&lt;font color=&quot;#000000&quot;&gt;name:&amp;nbsp;virtualOutbound-catchall-tcp&lt;/font&gt;" style="rounded=1;whiteSpace=wrap;html=1;fillColor=none;strokeColor=#666666;fontColor=#333333;labelPosition=center;verticalLabelPosition=top;align=center;verticalAlign=bottom;spacingBottom=-50;" parent="1" vertex="1">
          <mxGeometry x="360.5" y="-17" width="400" height="260" as="geometry" />
        </mxCell>
        <mxCell id="6" value="filter&lt;br&gt;&lt;br&gt;name:&amp;nbsp;envoy.filters.network.tcp_proxy&lt;br&gt;cluster: PassthroughCluster" style="rounded=0;whiteSpace=wrap;html=1;fillColor=#ffe6cc;strokeColor=#d79b00;" parent="1" vertex="1">
          <mxGeometry x="409.38" y="90" width="260" height="60" as="geometry" />
        </mxCell>
        <UserObject label="&lt;div&gt;&lt;b&gt;use_original_dst&lt;/b&gt;&lt;/div&gt;&lt;div&gt;&lt;br&gt;&lt;/div&gt;&lt;div&gt;(BoolValue) If a connection is redirected using iptables, the port on which the proxy receives it might be different from the original destination address. When this flag is set to true, the listener hands off redirected connections to the listener associated with the original destination address. If there is no listener associated with the original destination address, the connection is handled by the listener that receives it. Defaults to false.&lt;/div&gt;&lt;div&gt;&lt;br&gt;&lt;/div&gt;&lt;div&gt;设置为true,表明监听器将接收到的请求转交给和请求原目的地址关联的listener进行处理。&lt;br&gt;&lt;/div&gt;" link="https://www.envoyproxy.io/docs/envoy/latest/api-v3/config/listener/v3/listener.proto" id="7">
          <mxCell style="shape=note;strokeWidth=2;fontSize=12;size=20;whiteSpace=wrap;html=1;fillColor=#fff2cc;strokeColor=#d6b656;fontColor=#666600;align=left;" parent="1" vertex="1">
            <mxGeometry x="-265" y="-320" width="390" height="190" as="geometry" />
          </mxCell>
        </UserObject>
        <mxCell id="8" value="" style="endArrow=none;dashed=1;html=1;dashPattern=1 3;strokeWidth=2;rounded=0;fontSize=12;" parent="1" source="7" target="3" edge="1">
          <mxGeometry width="50" height="50" relative="1" as="geometry">
            <mxPoint x="-70.62" y="60" as="sourcePoint" />
            <mxPoint x="-20.62" y="10" as="targetPoint" />
          </mxGeometry>
        </mxCell>
        <UserObject label="&lt;span&gt;该filter没有filter_chain_match匹配条件，因此如果进入该listener的请求在配置中找不到对于目的端口的listener进行处理，就会缺省进入该filter进行处理&lt;/span&gt;" link="https://www.envoyproxy.io/docs/envoy/latest/api-v3/config/listener/v3/listener.proto" id="9">
          <mxCell style="shape=note;strokeWidth=2;fontSize=12;size=20;whiteSpace=wrap;html=1;fillColor=#fff2cc;strokeColor=#d6b656;fontColor=#666600;align=left;fontStyle=0" parent="1" vertex="1">
            <mxGeometry x="-300" y="15" width="390" height="135" as="geometry" />
          </mxCell>
        </UserObject>
        <mxCell id="10" value="" style="endArrow=none;dashed=1;html=1;dashPattern=1 3;strokeWidth=2;rounded=0;fontSize=12;" parent="1" source="9" target="5" edge="1">
          <mxGeometry width="50" height="50" relative="1" as="geometry">
            <mxPoint x="-90.62" y="260" as="sourcePoint" />
            <mxPoint x="-40.620000000000005" y="210" as="targetPoint" />
          </mxGeometry>
        </mxCell>
        <mxCell id="11" value="&lt;font color=&quot;#000000&quot;&gt;filter_chain&lt;/font&gt;&lt;br&gt;&lt;font color=&quot;#000000&quot;&gt;name:&amp;nbsp;virtualOutbound-blackhole&lt;br&gt;filter_chain_match.destination_port:15001&lt;br&gt;&lt;/font&gt;" style="rounded=1;whiteSpace=wrap;html=1;fillColor=none;strokeColor=#666666;fontColor=#333333;labelPosition=center;verticalLabelPosition=top;align=center;verticalAlign=bottom;spacingBottom=-50;" parent="1" vertex="1">
          <mxGeometry x="849.38" y="-20" width="400" height="260" as="geometry" />
        </mxCell>
        <mxCell id="12" value="filter&lt;br&gt;&lt;br&gt;name:&amp;nbsp;envoy.filters.network.tcp_proxy&lt;br&gt;cluster: BlackHoleCluster" style="rounded=0;whiteSpace=wrap;html=1;fillColor=#ffe6cc;strokeColor=#d79b00;" parent="1" vertex="1">
          <mxGeometry x="919.38" y="90" width="260" height="60" as="geometry" />
        </mxCell>
        <mxCell id="13" value="" style="sketch=0;aspect=fixed;pointerEvents=1;shadow=0;dashed=0;html=1;strokeColor=none;labelPosition=center;verticalLabelPosition=bottom;verticalAlign=top;align=center;fillColor=#00188D;shape=mxgraph.mscae.enterprise.application;fontSize=12;" parent="1" vertex="1">
          <mxGeometry x="739.38" y="750" width="132.35" height="90" as="geometry" />
        </mxCell>
        <mxCell id="14" value="&lt;font color=&quot;#000000&quot;&gt;kernel netfilter&lt;br&gt;&lt;/font&gt;" style="rounded=1;whiteSpace=wrap;html=1;fillColor=#f5f5f5;strokeColor=#666666;fontColor=#333333;labelPosition=center;verticalLabelPosition=top;align=center;verticalAlign=bottom;spacingBottom=-50;" parent="1" vertex="1">
          <mxGeometry x="502.5" y="378" width="595" height="254.5" as="geometry" />
        </mxCell>
        <mxCell id="15" value="invoke &lt;br&gt;upstream service of APP" style="endArrow=classic;html=1;rounded=0;dashed=1;dashPattern=1 2;fontSize=12;" parent="1" source="13" target="16" edge="1">
          <mxGeometry x="-0.4615" width="50" height="50" relative="1" as="geometry">
            <mxPoint x="805" y="760" as="sourcePoint" />
            <mxPoint x="945" y="60" as="targetPoint" />
            <mxPoint as="offset" />
          </mxGeometry>
        </mxCell>
        <mxCell id="16" value="redirect rule" style="rounded=0;whiteSpace=wrap;html=1;fillColor=#ffe6cc;strokeColor=#d79b00;" parent="1" vertex="1">
          <mxGeometry x="675" y="480" width="260" height="60" as="geometry" />
        </mxCell>
        <UserObject label="&lt;div&gt;&lt;div&gt;-A ISTIO_OUTPUT -j ISTIO_REDIRECT&lt;/div&gt;&lt;div&gt;-A ISTIO_REDIRECT -p tcp -j REDIRECT --to-ports 15001&lt;/div&gt;&lt;/div&gt;&lt;div&gt;&lt;br&gt;&lt;/div&gt;" link="https://github.com/envoyproxy/envoy/blob/release/v1.18/source/extensions/filters/listener/original_dst/original_dst.cc#L67" id="17">
          <mxCell style="shape=note;strokeWidth=2;fontSize=12;size=20;whiteSpace=wrap;html=1;fillColor=#fff2cc;strokeColor=#d6b656;fontColor=#666600;align=left;fontStyle=0;shadow=1;sketch=0;" parent="1" vertex="1">
            <mxGeometry x="1210" y="340" width="450" height="120" as="geometry" />
          </mxCell>
        </UserObject>
        <mxCell id="18" value="" style="endArrow=none;dashed=1;html=1;dashPattern=1 3;strokeWidth=2;rounded=0;fontSize=12;" parent="1" source="17" target="16" edge="1">
          <mxGeometry width="50" height="50" relative="1" as="geometry">
            <mxPoint x="1905" y="545" as="sourcePoint" />
            <mxPoint x="934.9999999999991" y="415.76086956521794" as="targetPoint" />
          </mxGeometry>
        </mxCell>
        <mxCell id="19" value="" style="endArrow=classic;html=1;rounded=0;dashed=1;dashPattern=1 2;fontSize=12;" parent="1" source="16" target="3" edge="1">
          <mxGeometry width="50" height="50" relative="1" as="geometry">
            <mxPoint x="325.68614457831336" y="890" as="sourcePoint" />
            <mxPoint x="775.3259036144573" y="550" as="targetPoint" />
          </mxGeometry>
        </mxCell>
        <mxCell id="20" value="dynamic_active_clusters" style="rounded=1;whiteSpace=wrap;html=1;fillColor=#f5f5f5;strokeColor=#666666;fontColor=#333333;labelPosition=center;verticalLabelPosition=top;align=center;verticalAlign=bottom;spacingBottom=-30;" parent="1" vertex="1">
          <mxGeometry x="381" y="-2710" width="1240" height="820" as="geometry" />
        </mxCell>
        <mxCell id="31" value="&lt;font color=&quot;#000000&quot;&gt;cluster&lt;br&gt;&lt;/font&gt;" style="rounded=1;whiteSpace=wrap;html=1;fillColor=none;strokeColor=#666666;fontColor=#333333;labelPosition=center;verticalLabelPosition=top;align=center;verticalAlign=bottom;spacingBottom=-50;" parent="1" vertex="1">
          <mxGeometry x="531" y="-2588.12" width="1050" height="658.12" as="geometry" />
        </mxCell>
        <mxCell id="32" value="&lt;font color=&quot;#000000&quot;&gt;filters&lt;/font&gt;&lt;font color=&quot;#000000&quot;&gt;&lt;br&gt;&lt;/font&gt;" style="rounded=1;whiteSpace=wrap;html=1;fillColor=none;strokeColor=#666666;fontColor=#333333;labelPosition=center;verticalLabelPosition=top;align=center;verticalAlign=bottom;spacingBottom=-50;" parent="1" vertex="1">
          <mxGeometry x="551" y="-2349.37" width="270" height="284.37" as="geometry" />
        </mxCell>
        <mxCell id="33" value="&quot;name&quot;: &quot;outbound|8080||fortio-server-l2.default.svc.cluster.local&quot;&lt;br&gt;&quot;type&quot;: &quot;EDS&quot;&lt;br&gt;&quot;connect_timeout&quot;: &quot;10s&quot;&lt;br&gt;lb_policy:&lt;br&gt;circuit_breakers:&lt;br&gt;&quot;cleanup_interval&quot;: &quot;60s&quot;," style="shape=document;whiteSpace=wrap;html=1;boundedLbl=1;fontSize=12;align=left;size=0.16666666666666666;" parent="1" vertex="1">
          <mxGeometry x="551" y="-2527" width="400" height="140" as="geometry" />
        </mxCell>
        <UserObject label="&quot;name&quot;: &quot;istio.metadata_exchange&quot;&lt;br&gt;&quot;protocol&quot;: &quot;istio-peer-exchange&quot;&lt;br&gt;type_url: type.googleapis.com/envoy.&lt;font color=&quot;#ff0000&quot;&gt;&lt;b&gt;tcp&lt;/b&gt;&lt;/font&gt;.metadataexchange.config.MetadataExchange" tooltip="&lt;pre class=&quot;hljs&quot; style=&quot;color: rgb(234, 234, 234); display: block; overflow-x: auto; background: rgb(0, 0, 0);&quot;&gt;&lt;span class=&quot;hljs-attr&quot;&gt;      metadata:&lt;/span&gt;&#xa;&lt;span class=&quot;hljs-attr&quot;&gt;        filter_metadata:&lt;/span&gt;&#xa;&lt;span class=&quot;hljs-attr&quot;&gt;          istio:&lt;/span&gt;&#xa;&lt;span class=&quot;hljs-attr&quot;&gt;            services:&lt;/span&gt;&#xa;&lt;span class=&quot;hljs-attr&quot;&gt;            - namespace:&lt;/span&gt; default&#xa;&lt;span class=&quot;hljs-attr&quot;&gt;              host:&lt;/span&gt; fortio-server-l2.default.svc.cluster.local&#xa;&lt;span class=&quot;hljs-attr&quot;&gt;              name:&lt;/span&gt; fortio-server-l2&#xa;&lt;span class=&quot;hljs-attr&quot;&gt;            default_original_port:&lt;/span&gt; &lt;span class=&quot;hljs-number&quot; style=&quot;color: red; font-weight: bolder;&quot;&gt;8080&lt;/span&gt;&#xa;&lt;span class=&quot;hljs-attr&quot;&gt;            config:&lt;/span&gt; &lt;span class=&quot;hljs-string&quot; style=&quot;color: rgb(0, 255, 0);&quot;&gt;&quot;/apis/networking.istio.io/v1alpha3/namespaces/default/destination-rule/fortio-server-l2&quot;&lt;/span&gt;&#xa;&lt;span class=&quot;hljs-attr&quot;&gt;      common_lb_config:&lt;/span&gt;&#xa;&lt;span class=&quot;hljs-attr&quot;&gt;        healthy_panic_threshold:&lt;/span&gt; {}&#xa;&lt;span class=&quot;hljs-attr&quot;&gt;      filters:&lt;/span&gt;&#xa;&lt;span class=&quot;hljs-attr&quot;&gt;      - name:&lt;/span&gt; istio.metadata_exchange&#xa;&lt;span class=&quot;hljs-attr&quot;&gt;        typed_config:&lt;/span&gt;&#xa;          &lt;span class=&quot;hljs-string&quot; style=&quot;color: rgb(0, 255, 0);&quot;&gt;&quot;@type&quot;&lt;/span&gt;: type.googleapis.com/udpa.type.v1.TypedStruct&#xa;&lt;span class=&quot;hljs-attr&quot;&gt;          type_url:&lt;/span&gt; type.googleapis.com/envoy.tcp.metadataexchange.config.MetadataExchange&#xa;&lt;span class=&quot;hljs-attr&quot;&gt;          value:&lt;/span&gt;&#xa;&lt;span class=&quot;hljs-attr&quot;&gt;            protocol:&lt;/span&gt; istio-peer-exchange&lt;/pre&gt;" id="34">
          <mxCell style="rounded=0;html=1;fillColor=#ffe6cc;strokeColor=#d79b00;whiteSpace=wrap;" parent="1" vertex="1">
            <mxGeometry x="571" y="-2289.37" width="230" height="153.37" as="geometry" />
          </mxCell>
        </UserObject>
        <mxCell id="35" value="" style="shape=image;verticalLabelPosition=bottom;labelBackgroundColor=#ffffff;verticalAlign=top;aspect=fixed;imageAspect=0;image=data:image/png,iVBORw0KGgoAAAANSUhEUgAAAzsAAAHdCAIAAAC1z/DOAAAgAElEQVR4Aey9/U8iW7rof/8YolNjLL9s2L7AERtJI93azGU85d02W6YbbcWWK+2AOIz2eEL36EYnsGN7DIfcMl81Y9+p7Q045KhzDWdMRk4yOMkcdnIOO9kTkt5hkp3wE/un+o2bVW8UUIXSvmH3k5gOzUvVWp+1qupTz7PWqv+mwHD2r629W3gNL4AAEAACQAAIAAEgAAQah8B/E4oCxiaggBdAAAgAASAABIAAEGgoAmBsXIixoVoFCgMEgAAQAAJAAAgAATEBMDYwNiAABIAAEAACQAAINDoBMLZGbyGxX8NrIAAEgAAQAAJA4OMkAMbWIMam1q3S3tWFJn4iyN3tji0Tae8WpWrMitz79WHu+3e579/9+0ZfY5YQSgUEgAAQAAJAQIrAxY3NNRzND1vUTY9Pvbux9rJtEf1b9KSTuLuSIZS8iTj1RhPastrdjNK9p7HdSIHV7S/z3nU/djEsV2xsJmo6fqpvVXf58+6l2csa7b1fH2b/Y92iElocXgABIAAEgAAQuBMEwNjKhOxGBKhsj3wvAWOTxIIrwNguJsp8R5LBCBsBAkAACACBO07gksZmH9wt+o7Ef7SNUPMXD/MDkp7yLRj86eko7YsXJn0O9FHPwlAog945ome2UoOPCS5wYqCm4pmhidjobsEbp6dDZHurcPkx616mp5ifuHcztgkrtwt0Oc8M+04nqYI7mh9f8iuFn7S7LKHsTLzoi+cnV0PtSmFTuMKScMdPjRbStlXwHtHu3VODBm+ypcorUvRt7SjPa13MFLKSee9R0RvNT61TunZhL2bdyxQqcJyeDh8aDFqeCa7A9O0TifFddtcZ64Sdqb7Y2PRdvqx791SvYUmqWyw7NnYvVNbmdLQwpaq/wCZjmJ5aR6WaWd8x+jIzcXp6aYHdWguxYwvnZuKomUQFVmuXChVYZl4yjYjKwBXMHS96o7lRv5/FhWJsuzHDRGISVT8/6nOVgnOtVqEzTIdj+h6hq2iVo4csE280N77kxwXyNY0N09zX3utpE7587guIsZ2LCL4ABIAAEAACDUng4sbmGCQzFpNaYYlNhcnyUUpyWVHzAxJdy586XbhS3aSx6yxM5tQUGvL4tSYC1xDto4npeG7QxFy5DdTUUXEmFEDW1b5gpehxp5kVnRZbyhtN9w8QLe1mlcXfb7OXjO2o6A4F8FZcoXQNbdFTPvYj84Mw7SYpncGMm/zDW7Q75GfVBP3QknAfFWbCh3qDvqlVr7TMtvOmVWeMzT64S0/5F1QaE95j102EtBrW2NQqTxYV2ELgPQ7jat5HHWo5ZWQ+imeGbA6lxqwcCAz6WGcSjE3f5cuIdA1vGqCm4jnrhAt930I+pQqjoxwWBYbXU2CTMYxYqUzkeLw4vbSgNO1MxjMPmDIrbdTg6Gy7wYz32PX+rJc61Arui0lnRZsGYtPxwqhvQdVjxg2uB36SzSa3TKSRnS8F2nus7ROnM0d8+2JmQ6jgDlN61PTMXnZjnJT3kJPxvG3UjrebcZPL4FwoubKBHN2KaTF1uycz+dIlEl9cgameR797l/uj954gyue9AGNryNNQebOe14hQBSAABIDAR0ng4sZW4zRa09jCgZIqSSC2Wrbo8QlGQZCxCVd3FN3xrnLjlpSerPRgdhM1fZQfGuBCNS2jaS8V60JhPHJS9H4TkXDH00ZeyxhjK/1KfLWoR4BwReuCLU4/tenFW2BeO4Z2i5MefmBfe2A0TtseM2G21llrtGSioh8yxhYKaMt1TYHp9SF6xu8Sxm8hFOGQgLSeAqMYG4MaieZTm1aBuYYpKQ6owLlBgxAAkzQ2vSFU7sF84zLGdqrnDNUxRNGjoyZUUxRDTRs5qWXoMSMj0UcDsZkjzh1FTGp0OfYjMLZzEcEXgAAQAAJA4AMhcN3GRk9zQS8RL6XdyOZJ+XQqJzdMVpQN+SgwNNLcG/JzptITGo0WUT7UT/XbHCiixvoBSpmJVezQHU8ZlLgCKRrzgv1aucAxWdGUXtgIrxp1hqxQflPrz3njhcn1xJAnpDPw6qb0P43T1lJ2GOWOuZkZKJgkWClfC1QAZGy+OI0SrOSOqlS26rxz0bdbmolZr7GNjuoVGLJkJnntGNotDFuQmTX1+IfWmSQy1yhik5M0NsfQrqR64kxWVChhycix6rzzUZERR1zRareQtC+aG109HHQutLcLsihGdBWvIcYm6u31yPFVwIddAwEgAASAwCUIXLuxTXn4MWdcKbXapbx361BvMDE2RvSTNPedGsaG4YpWc/vjQL8/NRUtutcD3DgnZhwbL3mMqB1d0NhOdSUrKl2N6hEg9lfqFoPLMEFZw3nvUW5ogAmkvbex7Sb0JpQOnvKxg9twBYbiYUJ2uPoSW0+BUYxNxtjQXqZXA+3tbPkDo/HLGVtpdY8yY6s5D1evtCwYPYeju7SPSujE4w4v0b8riYGxXSFM2BQQAAJAAAjcIIErMjaSLiUBS6VnZh5UGhu6hE/yA9QUKEtYvJCx8ZtlUpx8hAxlRQtWCzeuH3dmfBfMisbljC3hjSckZa7y2s+Xh38fqScfUHQMUTWzomwWuGwLwjg2HCMSM3Fe/pisqDsku7JGE3HxAssbG5sGZUcTYrjCFBPnmhXcOLZAaQIBKjmXFS1/E1ls+eoeJWNTmMRZ75Il8wD5d1BhuMhf5UdlxND32zT9euN9mHlwLij4AhAAAkAACNx1AldibFp9iPaGSVW7tqlVnM+SNDa9PlTg5gpgpq6XGe/R+camtFGWUZdKY2rR2A2ruVJaEBlb0UvG0AyDgdBTqshHp4hzZh7IGJvCsDN1lBsmzE2tamHomGwbK139L0mdiWhpNykt1HhUGNOmVvly3mhKNPMgUTbzIJoZstlxjVlpWuh3zjKD0krGhpKtS3nfLjdZoXyAv0M3EbM6+YkXaHDYxQssb2ytrmGKHvdYUZWV9v71gk80CpCTsOipoUcvbl+uYJ4FlcaM9zgMvhAaQVjD2DCzYb3g3UoYLVY06cQSsKxSXCzNFBpy+rt6zC3tRJczNcPPh5Alz6kbjGPjNbfKZc9DBz8EAkAACACBO0bgSowNbzIErGiljKLvqGp1j8oYG67QzA6F8+5oYXo3+9QXGrpAVhR/HBvdyrvRUh3itSfYxboyQ05uIQn51T3ILnGWjVndQyaQZtL60tNRZr2Sc1f3aLU/WM1MUczgMypr87iECQGKVkL/klnT5IieDieM9a3ugea9Du8WZ5ZmmQiWeBGN/FQ40W9hBvJzF+mLF1je2DAcs+w83UUrpExvpYdGd8qzorhC6egP5RD/o6LE6h5ocRO0JEdpdQ+prChyCCVa3UNYpeWp38+N2DMErOHsDLt6C1rwpTQZtqZ5gLHdsdNNzdaEugABIAAEgEAtAldjbLd2Iq6YeQCRBiBQmwCMY6vNBz4FAkAACACBRiUAxlbLZ2/NRBu1u9x5IPcWD7PouaLfnnwJzxW9860JhwkQAAJA4GMiAMYGxgYEgAAQAAJAAAgAgUYncMeN7drlWts+ERvyS/2NVqxa0iAtfecK3CDcoBhAAAgAASAABBqaABhbQzcP5K2AABAAAkAACAABIKDAcDA2MDYgAASAABAAAkAACDQ6ATC2Rm8huLEAAkAACAABIAAEgAAYGxgbEAACQAAIAAEgAAQancBVGVvX4G/if/r6u3e5/whaVCDCQAAIAAEgAASAABAAAldI4IqMTe3bz353+E//vQ1vdEW9QnawKSAABIAAEAACQAAI3AyBKzK2gS8TWYiuga0CASAABIAAEAACQOBaCFyhsaWClmsp4s2oK+wFCAABIAAEgAAQAAINS+CqjG3jT9nUFwNgbEAACAABIAAEgAAQAAJXT+AqjA3vGVxLfvvN/xlTX335GlZ1oWBAAAgAASAABIAAELgxApc1Nmxk+6+579/l/usrT/+NFRp2BASAABAAAkAACACBj4rAZY0NwcLvD0OM7dqfcArxSyAABIAAEAACQODjJXAVxobhCguMY/t4+9BHdYsDlQUCQAAIAAEgcCsErsjY0OoeMFcUpA0IAAEgAASAABAAAtdC4AqNDdZju5YWuhWRh50CASAABIAAEAACDUXgioxNeOYBDOcCAkAACAABIAAEgAAQuGoCV2RsWNfgb/4AzxVtKBmHwgABIAAEgAAQAAIfDIGrMjZICAIBIAAEgAAQAAJAAAhcFwEwtusi+8FIPVQECAABIAAEgAAQuHUCYGxgbEAACAABIAAEgAAQaHQCYGyN3kK3LvVQACAABIAAEAACQODWCYCxgbEBASAABIAAEAACQKDRCYCxNXoL3brUQwGAABAAAkAACACBWycAxnYdxuZ4cVzcPEN/i8/1N9PGLc/TkYOY7pKrv1gTG8nEQ/wqmKj888m806K+merDXoAAEAACQAAIfNgErtXYXMPR/LBF3fT41Lsba7+kTNT986vcu8qTibwNtWHWsX26XMLUvcF8ZNvfIlE8h/O44styJqR+RNKbZ/T8M07vVJ7M5llxLei6eOe7GmPrC7wIBjQSdZEuefOT08hJwihpeLhj+E3sUa/0D6vrJU/4oluo3ia8AwSAABAAAkDggyEAxnYhIZD3iSsztshxfm3b34ZsiRjZy68d34axXdjV2AOglrHVuSl5whdqoA/mgISKAAEgAASAABCQJHALxtYykfbuHj7wpaYo2hvPj/pcGHt1b7Ual9KTVMF7VPRSWZvHxQWuLIcz0czTcN4bzQ1PkNZd2hvNWExatj5NPQuD6zl3vOiL58eXQiqlcIGvGWNT92jv3f9UMjgkpRpSPqE2vimwqU/h37WgQ0RZOsbWYgnN7eUjZ8XISX5lm3rYiSswFGPbCMc8BymiE1f07Szvx5zbNB9j02qeH746KETO6I2DlPMJIeyiuc//Am2KXttLDAfEWVF1m3Vnbp/Zy3F2btHBiKBARurF0OEak8bdrMqKShUYb36WEmrNvdjf6WDR4Qvz7KbOqrKina4xMruWLG4m88vhkE5VKokU4dKnQpXhBRAAAkAACACBj5PAtRqbY5DMWExqhSU2FSZVvAm1TKR9R4VRpx3DcGwgNhXPDZqY0U6trn4/qbfYlRqz0kI+pejxCTNqFcvhzFF2cMCqW8r74ul+k1W/mncvuZowXKGctVKFSb+/q8eMG2YHw4WZpVnO/zDpvbPNrP3lH9/lvvvKpbpgq7c9P10J+9swYng753nCySLz23pjbHbHAb3yZkHTbVL12h+6QsZu3tjezBqDuUWXWbOYXX7tsPDG1oxcKj/ncnR0E8bF9EYy5xhgcOF2x0FxbTvU22vWPIktJ4ub/Di2Zgu1kszNuVyabnPHEDl/XFh8zpDkm0C21hLj2CQLzLlUrRibxDg28/BbOrJHPewzqwb8L/bpDZKNKaKtyRMGbwMCQAAIAAEgAATwazU2ab7I2KIJbSv7qX1wlx4dNVU5hLrLn/eG/EjLLIcz1GEXhjfZUt5dSoXhKEq3HmjBcHwi493aEVxQMRCbiZ/quS1L753dUb3GVlU8YeN1Ghu+MJcsjVfjN8vE2N64mi2x4NtDz352rE/PG5v2YbgQ2Q7wQTJiZK/IRfIssbWz7Ag3UIwJ+HHGpn9EovhcM+9nHYtZZhCeUGb5F9XGJl1gbgv1GVsvuSyKujU/SWwk0yimyJcTXgABIAAEgAAQAAJyBG7H2FjxYspktWzxsTTM1OVMjO+irKiP/WO0DBkbM3EBzWDY2lFiODaa9oZDLZhau1Tgvin85CjzQHOTElCnsWF6YzAXSRZWthPO16GHfexUA87YFLjDeVDc3Cc7MMHYzCN7dDBg59tPbQzTm9vIVluepzZFo/5Vrgw/VxTF3ipTlgcUN5+gM7CY5D5deW3lN8sTqzY26QK/l7GhjacsQia0XOAqSwIaBwSAABAAAkAACIgI3JKxbaFQWYWxtdhS7nhmkCAwFCRTt7/Ms4E0OWPDGWPj4nCiKt3stb9eY0NVa+tzWTyU520+cpZzWrTcOLY3aGaoyhqwWEyKkrERNYwtcnIozNNscwnj2FAec9kjlwbVtvUSHcyfqrNq6Q0JY5MsMBgb77i31vGgAEAACAABIPBxEWgcY+PSoPwoNL1hnfbVjLHhbFaUOuQTrPW0nPq+3tj/qbqen0hfm9W6QD7CBL2qTBGZ0ytXdcJX2Ckxsk8HX9vFxsZvRIixaR+GadmsaCmriIrBj2NDWdENUnLBEWHXMi+kjU34slBg7p1mayJSNVOBq0L1OLbyoFo9WdGuT+/d12ouOuiQZygUG14AASAABIAAELjzBBrH2HB8Iu2lErp2tQJT448Pp+PFc42NmXlAT4dIrcGM99i7bOSwP4BLq1VZU13dODYcBbdOTi29+ma8ImSlf0QWIm93entNbZ16blSZyjUSIB9aiLZOU4eVenXCjmnjs6KlkgvGhpfPPEhtnOUc7LK0uN2xT68EHC0Y3tzrnz8WzzyIBZOFxdcLul6zasDxyBPzeIS8ahmHSrmpNjbpAvMb6dtZOcu9eGJuxtXNFRNvq40NI2rMPKgsSQkFrri3eJj7/tuom7d5fu/i78BrIAAEgAAQAAIfNIEGMjZFK2FYysxECzO7uclV8sFS7rysKLpyo9U9QtkZtLpHYWYrNTzhuMh1/QqNTaFyjJC5DWZwWPnqHriid+HFXiGClrrgh9jj9mEys3JMo9U9jrPziy5mSkEtY1NgzOoex2iJ3Y2DtPMZIUwpaO5Fq3tsnOSD+6eON8I4NiaPad2Z28tvJJk1RN4mRqw1Qn24AjOP7FUOfVteZJYRkS6w4EwmYyAdPGF+y63uodYFcpWj6IQYZNnqHmTvBacdDHyZyH3/Z/Lzi7RsLfP7oI9kqDgQAAJAAAh82ARuwdg+bKBQuysn8KnnD99m/+g1CpoIL4AAEAACQAAIfHQEwNg+uia/cqO65g2qxn73tz+TaPW+a94RbB8IAAEgAASAQOMSAGNr3LYBQQECQAAIAAEgAASAAEsAjA2MDQgAASAABIAAEAACjU4AjK3RWwjuLYAAEAACQAAIAAEgAMYGxgYEgAAQAAJAAAgAgUYnAMbW6C0EdxVAAAgAASAABIAAEABjA2MDAkAACAABIAAEgECjE/hQjc01HKWfPtbejJJrR//X4V/+9m3u+8N/6r+ZPcJegAAQAAJAAAgAgY+KwLUam2s4mh+2qJsen3p3Y+2XXE+rPTAazw2aKp4EJWfEtYwNn8h4w6EWzGrZop/a9Jdu7/6Fk+//M+rTVzym6ZL1hZ8DASAABIAAEAACQIAnAMZ2aWPDP1//y3eH/3T/0uYnZ5/wPhAAAkAACAABIPCxE7hxY2tdsMXzo6HMTLww+TLUv573xvNPJ5hHWLZajUvpSargPSp6qazN42phvVJDjh8VfWV/aWO70HL69onE+G7Be0S7dzPWCXsT+hUTY3MuDK7n3HHavZUw9JSCczVjbKpP793X3uuqY4V9/PPIX747/CUYm9Ai8AIIAAEgAASAABC4YgLXamyOQTJjMakVlthUmFSx+oWMjR512lWjp+6jgm3UqppIu3cp9Gmrq99P6i12pcastJBPKXp8wlwKXElnRdUqT9YbzwzZHOhXA4FB3wLjea7haNFLpSyEVWmYHSJpb8gvSFiL7XRq1d+CEQ/Wc9aKsW64PfL19+/+faOPD0KWCiD3DvrJd/u/7Dn/m3JbgPeBABAAAkAACAABIFCTwLUam5RdImPLWQxqhYYcj2ceaHCFYWcqfqprrfiyusuf94b8TMCM+UjS2FpnrVF63CkSO662yNimPFbWorDRtJe62EC6uo1NpR3d/nPuPyL/QwXGBgSAABAAAkAACACBayJwK8aW7e/BFe2h8TiT3OzZmYyn9MjYTF1ONr/J50DXA1xiFMMVksbWQ05KT0dgsqI2bq4omvoQPdTWVNf34Yu7v8p+/y733Z93/ufVb/zKSwsbBAJAAAgAASAABO4sgUYwNpI1thZbyh3PDBIEhuxN3f4y772ksfEZz+syNtTqXfpJFGNbhxjbnT0G3kfWobJAAAgAASAABG6WQOMYG5cG5Ueb6Q3rtE9sbMrAaDw/NFCaQIAutGxWVDzcjcNXtrpHPcam+tTYr69v5gGMY6vIaMN/gQAQAAJAAAgAgSsm0DjGhuMTaS+V0LWrFZgaf3w4HS+WGRvmGqboSZ+jpVXd1Cp4GzPzIJoZstlxjVlpWuh3zvIzD0or6NZhbHWPY8MVMFf0Zm8yICQGBIAAEAACQOAjJNBAxqZoJQxLmZloYWY3N7lKPljKlWVFGY0bp2hmmY+Lre7xHlnR9zI2WI/tIzxyoMpAAAgAASAABG6SwI0b2wcYj4FnHlxx4PcmDwDYFxAAAkAACACBO0EAjO0KbAOeK3on+joUEggAASAABIDA3SUAxnYFxnZ3mx9KDgSAABAAAkAACNwJAmBsYGxAAAgAASAABIAAEGh0AmBsjd5Cd0L8oZBAAAgAASAABIDAtRIAYwNjAwJAAAgAASAABIBAoxMAY2v0FrpWYYeNAwEgAASAABAAAneCABgbGBsQAAJAAAgAASAABBqdwJ0wNscQxT0b/qlNfzMijI2mvbux9sZZPU7ln0/mnRbhYQ+X6VjmkT16eZG4GZKwFyAABIAAEAACQODyBG7H2PCJjDccasGsli26XMLYB8D7+aeLir3EMURVfFn8qfi1WrdK+45KX8adGd9RccbvujivixqbiZqOn+pb0UNR3UuzTZcyPK2FpFdeWxWdoVfJzEivuEa4AncMv4k9qniz1u6IsX162SOpZXrj4uGY1XRRGgNUMHn6CFf3BvMb4dnmWjstLzN8EwgAASAABIAAELgiAh+ssXmp/EzIzzxjlOgn8zPUHTe2utu7hrHV6VVgbHXDr5MwbB8IAAEgAASAwHkEGsfY1NqlAvPMUC4BiqJiLx2iOJB0jA0zhaxk3ntU9EbzU+uUrh1XYCjG5l6NWXdThnZc0bMzuRUbWqf5GJtWaTsc3y14j2j3bmrwcSkK1dTjH0abomfIxIOX4qyousWyY2P3QmVtTgcjgsxVuWaMDdPc197raTuvDfg6ysTY8IX5s+Im+qvKina6xsjsWrK4mSys7adGLFpmU3bHAft94V967gmbTjUNv+XerMyK4uaHgdTKCb2ZpINvDy197KaYOoKxXbQFQdSAABAAAkAACFwXgdsxthbb6dSqvwUjHqznrPzz2hnbqDcrah/cpaf8CyqNCe+x6yZCWg1vbEuzWn9udNSs8mQnPQ4Db2xNlsPpo7xtwqHUEFpn2h3PWUyszdgHt4ozoVBXj1n1ODYZL/r4cWxNA9RUPGedcCk1ZqWFfEoVRkfNnGYZyNGtmBZTt3syky8rsq6q59Hv3uX+6L13wcbTPnyTW/QQik7/3P4p0V3+K4lxbFrjm0JkjzL2mdu6rb1PSMIiHuRXI8ZWPY5NrXmdjZykR4YIVa+DIPObx4dGFV+APnJxP2bE1brXmeVARR3574DTAAEgAASAABAAAtdJ4HaMjY8qVV/v6zS21gVbvDRejd8sE2NbcjUNxKbDh9atrMWg541Nq1steNcDfJCM6CeLM34mkjcQmznK9vewRWICfpyx6fUhFJ8TxqgpPVlmEF514SveqdfYKn5e/l8JYzMRb+m1Ny6ZgWV1GZvDeVwsRd06A4tJeu6JKMx2nV2Qb7Xy+sIegQAQAAJAAAgAARGBO25smF7rz3njhcn1xJAnpDOwQSbO2BSYY2i36CNJJSYYm/kBSU+/tPOWoNYu0b71AIbh2GjKF01oeTQtExl+rqh9cLeUqOXytruUiv8mv6lrFg4JY8NVz07XkvTaXsoT2CGsRLm61WNsaOO0xypMREV51ZLA3XBNYXdAAAgAASAABIBAFYG7bmwoB9picBkmKGs47z3KDQ1ouXFsSyh/h1sChgGTomRshKyx2VLe6KHI2IRxbCjxOu7k06BVBG/R2BQY3txtf/icdISzG2f08qJVVBgwtmt26NvqCbBfIAAEgAAQ+CgJNKaxoaCXSD7Y14w5TdRYk4LoJ+lpn11sbPxGhBibVrdKy2ZF42kjmriALLD9ZZ4fx4ayou6Q5IIj1YUse6dN06833r/wzIOy3/Il59+UirGJvqPuDeQjeyFR5I+QX3StehwbZEV5zhIdDz4CAkAACAABIHD7BBrN2PCWibQ3emro0Te1Ckk6FpNev1rwhne6NKaWdj03qkzp6n9J6kxES7tJaaHGo+yYNiErKvAVjA1vshzOHOVtow5cQ3Q5U+6j3GBp5gE96XNgGN6k8dso8cyD2HS8MOpbUPWYcYNDNxGzOoW8qrCL6hfXPY7N/HCRIqx2VadJ1bfwYr9iTJv2EUlH3pKaTm0zXkGy2tjUmte5yEmKm3kQzm8eJ0ozD0BigAAQAAJAAAgAgdsm0HDGplA6+kM5dxwNHStf3QNXaBaGyYL3qOg74oNhrfYHq5kpikare1BZm8fFTCmoZWwKTKsaPRzfRUvsunfTQ48JYUoBu7qHO5qf3jodXBLGsTGJV2Z1D3ecWUMknOi31Aj1Cep2Jcam1gVyzNIewlIdxc1tduaE3vg6tXxQiJwVN5P55XBIJ8zuZHpVc19gbp/59Ixf3cOa2OAWCuG3lkw8xJkC48SjQDp4Qm+e0Wt7CQIll4WKwAsgAASAABAAAkDglgk0nrGBKAABIAAEgAAQAAJAAAiUEwBju2VlhlAWEAACQAAIAAEgAATOJQDGBsYGBIAAEAACQAAIAIFGJwDG1ugtdK50wxeAABAAAkAACACBD54AGBsYGxAAAkAACAABIAAEGp0AGFujt9AHf9MAFQQCQAAIAAEgAATOJQDGBsYGBIAAEAACQAAIAIFGJwDG1ugtdK50wxeAABAAAkAACACBD57A9Rnbfe/xd++yf+4zI5cAACAASURBVPvz8f/6mQasCAgAASAABIAAEAACQOD9CVyfsaEyYUb3b7/+LvFP/R+8+UIFgQAQAAJAAAgAASBwfQSu19gUGIq0/Tn8udST3d9fM68PB2wZCAABIAAEgAAQAAINSOC6ja0HjK0BWx2KBASAABAAAkAACNwtAtdtbF0v/vW7v5J2iLHdrW4BpQUCQAAIAAEgAAQaisB1G5tqMPwf3/5l+2fGroaqNhQGCAABIAAEgAAQAAJ3iMB1Gxuu0PzP//8v373Lff8u6oZI2x3qGVBUIAAEgAAQAAJAoHEIXLexQYwNJlgAASAABIAAEAACQOCyBK7b2OTHseE92nv3P1VftgKNI79QEiAABIAAEAACQAAIXBOB6zY22bmimCv+be77w1/ev6aKwWaBABAAAkAACAABIPDBELhuY5Ndj+1Tzx++zf3tt5MwIwGijEAACAABIAAEgAAQOIfA9Rqb/DMPVGO/+9u7f994hJ9Tvg9GjaEiQAAIAAEgAASAABB4bwLXZ2w1nyuKf77+l7995ep573LDD4EAEAACQAAIAAEg8PEQuD5jg+AZEAACQAAIAAEgAASAwNUQAGO7Go4fj+NDTYEAEAACQAAIAIGbJwDGBsYGBIAAEAACQAAIAIFGJwDG1ugtdPMWD3sEAkAACAABIAAEGo0AGBsYGxAAAkAACAABIAAEGp0AGFujt1CjOT6UBwgAASAABIAAELh5AmBsd9fY1LpV2ru60IQ1ZhW6Bn8T/9PX373L/UfQorr5ng17BAJAAAgAASDwIRG4VmNzDUfzwxZ10+NT726svUwsiP4tetJJ3H2U6vaXee+6Hyur3c0o1PsZm1yBtfoQPeWxKtpD4/FMf8+lq6D27We/O/yn/94GiyTfQt+4dPNBmYEAEAACQKDBCICxXfLaJidAl9zsRX7e2MY28GUiC9G1i7QjfAcIAAEgAASAwPkEbt7Y7IO7Rd+R+I+2EWou2Kb0P43nh20Lg+s5d7zojeaGCa0Cw1uIHVs4NxOnffHCdPjQYEBvoj8DNRXPDE3ERncL3jg9HSLbW/k6t7ssoexMvOiLF2a2Uv0D3E9wZ8a7lRhcykxHC24qa5uwl7KKpZ/kJ1dD7Up+UxiusCTc8VOjhbRtFbxHtHv31KBRa5cK5RUpzrx0nBs1xEwhK5n3HhW90fzUOqVr5/dSY+9Kq8GfnorSvjg9Q572D+iZvYiNTd/ly7p3T/UalqS6xbJjY/dCZW1ORwvCVbvANWNseJf23n2tup7kJjK2VNDC167B7lTObSb4AhAAAkAACACBhiJwrcbmGCQzFpNaYYlNhUlV2TVbJiuKjI1276YHCQJr1bYYZrWMnClt1ODobLvBjPfY9f6slzrUsmZmoKaOijOhgLIVV7QvWCl63Glm+Gq1SwUvSWl7zC0aa/tj0shZDo47M74jetyJRK3JtDMezw9bWJkzPwjTbpLSGcy4yT+8RbtDfkZ0GOewJNxHhZnwod6gb2rVKy2z7Zxp1Rtjsw/u0lP+BZXGhPfYdRMhrYZ1mhp7NxvXC96thNFixTVEu21ncJTNJgvGpu/yZUS6hjcNUFPxnHXCpdSYlRbyKVUYHWWxIG+TSeNqdf7c6AShaPdbt06NXKl437Js/Cn3/V9Jex3J34GNP2VTXwzwWyhrfXgTCAABIAAEgAAQqI/AtRpbjaLIG9tREY2mqnGBbw+MxnODBiaYhIwtN2jiAkvI0lZnmZiZybhOzyy5SvEzfoPI2KIJHReK0+pWaTc7eL+HnDzKDw1w0b4mIuGOp41CAAwZW+lTUfHkBEim7q0Ltjj91MYGyUTfqbF3EzVdqqPoJxhjbKGAtlzXFJheH6Jn/KW6Kz1ZbzjE22edBWa51WtseM/gWvLbb/7PmFpcYHgNBIAAEAACQAAIvCeBxjO2eGHYwmmTIEZNPf6hdSbFyaVTeXlisqIPuICQusuf94b8rKW12E5nUA4xZX25Y7QQgroxWdEdPuCnVvlyXpJUYrgCKVrKIGRCyxWKyYqm9ELKlfc/+ZCVXHvotf6cN16YXE8MeUI6A69u8nvHRtPeaEJb2qOwZWRsvjiNEqzkjqpUtuq8c9G3SwlVlomxCZu97AtsZPuvue/f5f7rK0+/0ILwAggAASAABIAAELgMgQY0Nt7GSo6CMonTq4H2diZ9qQyMxvnvyBubAsObNHbdKDm4mnUf0ZNOLm7HGJtYX3K+ixrbKR+ZEzvNe4Ss1C0Gl2GCsobz3qPcEDvA7r2NbTehN6F08JRPGJCHcPHZYXFR2dfvUeDqjZz3Dn5/GGJspQ58Hi74JhAAAkAACACB8wjcnrGR9KSnanUPZuaBkJrkVJRNg3KpT1xhik0LCcqaxsabLOMo4RDOsEBZ0VIsTW9Yv3BWNF7D2AJ1DPAqNQnRT9LTPjsqZ3lIrywnWzsryqR0MSIxE+flj8mKukNyC46wxlZngfEurbFfq6ln5oEFxrGBqAEBIAAEgAAQuDICt2VsaGaiN0yq2rVNraIcqKSxtbqGKXrcY0WZTaW9f73gO9/YzDoPZSTseLsJNywMbZXGtLEzD6aW/CqNWWVLTMfzVmY6qgIjzpl5IG1seMtE2hs9NfToyypS0rLyplK6+l+SOhPR0m5SWqjxqDCmrcbe+ZkHAwSuIVQE2W+rmHmAKzC9dinv2z3UMlndpoHYdLww6ltQ9Zhxg0M3EbM6GS9kSlVfgdmK1DuODcMVMFdUrg/A+0AACAABIAAE6idwW8aGNxkCVrRSRtF3VLm6R2WMDcMxy87T3YI7mp/eSg+N7lwgK6rXelKTu8z24/nxpdJSHUxW9LDfn5lBq4eg1T1K4bGy9TXILmFMG7+6h1RWFFcoHf0htBaJ7+gCq3u02h+sZqYoZvAZlbV5XPyEAFxRY+/nr+6BK5Su4d3izNIsUx1udQ9mhZT8VDjRbzHxEcc6C8x2qfc0NliPrdzX6z8+S60GvwUCQAAIAIGPm8CtGdttXYrYmQdoqgH8XSsB4ZkH17oX2DgQAAJAAAgAgY+DABgbqNs1Eega/M0f4LmicGMABIAAEAACQOBKCICxXZOvwGaBABAAAkAACAABIHBlBD46Y7sSz625EavhZWzIL/H3gH9SVs2fX1nTwl6AABAAAkAACACBD4YAGBsYEhAAAkAACAABIAAEGp0AGFujt9AHc3MAFQECQAAIAAEgAATemwAYGxgbEAACQAAIAAEgAAQanQAYW6O30HvLOPwQCAABIAAEgAAQ+GAIgLGBsQGB+gn0ksvJ7Fhf/T+81kWD+nZWzoqb6C8z0ttgZbvWisPGgQAQAAIfAYHbMTZ8IuMNh1owq2VLeEzTzV1grnLvA1QwefoIV/cG8xvh2eY70GNQUSPb/tKzFu5AmWX6RmdgMZlzDIiecnZjdXk/Y7vKAhNj+/Ry9ZN5MVyBylaPsd29PizTH26s9WFHQAAIAIHbIADGpr9UvPTuXe3A2K7ieg/Gdhtnq0sdqlBgIAAEgMAdJ9BIxmagpuKZoYnY6G7BG6enQ2R7K3dxbSF2bOHcTJz2xQvT4UODQcucu03GMD21npqK0jPrO0ZfZiZOTy8tcNGjVqvBn56Osj+J6XtKkZiaMTbVp/fua+91lR42WruBZY1Nr/Mklo/pyBm9cZByWM3cxaaPWklmnK7Y4kEhkqSDJKnDmTr27ZRn2UzENr0WdDFBO63m+eGrgwK7KecT9jHweMuz042TxEOV4B8O5wH9ysPvSKLYauObApMyYxNn6N+1oIO/Cqp1gVzkLfnQhYq9eUavbZMaDFfgVuJNeuW4EDkrRo6z869dbdyW1Y9IeiNMjoSzayd05Djz4omw61KBIye5V2/8KvYn+KznhF4MUvP7+Y2TQvBt7GG30Ciln2wcpIQ6orKp/PPJ/ItnC47t3EayGDnJvbBqFd3kMpf+E+qSJjoFFHIvzI8C6ZUTVLuNg8ycy8rXXX7vmLrNujO3l2d3/eqNv4Oti8jYmnsD88eF5dcOtuM193JF3Uzml9+ENGwD1SxwiyU0t5dHhE/yK9vUw3MqYnccCLVmX9BzTwSScjG2Uh3LGgXDFbJ9WA4jvA8EgAAQAAK3QOB2jK3Fdjq16m/BiAfrOetjVr9whYGaOirOhALKVlzRvmCl6HEnJwFKGzU4OttuMOM9dr0/66UOtUjmTMZw0R0KqEzkeLw4vbSgNO1MxjMPNLgCMxtCBXeY0psIXMP8ZDdW8j/JvXNWYY98/f27f9/o47zkvCbpIxf3Y0ZcrXudWQ64eANQd3gyG8epEatd1U30uhLBZHakj7mm9lErZ8U1MtCB44rOBc+x4FjEyB69ssg7BEqf5Z1D6CfNQ4drZ/k5l6OjmzAupjeEPKAKCdD8My5G2GyJrSXTRPd5BcbkYmzI2DZPCsvhgK5T26wy9z5xIdPCXSNB8tGQvaPb3DFEzpcKjIxtM5l1DJkUmFazmImcHBpZ+0Q2k597bld1mjsGXIRngbMcZGzFzYMEI2rmR+F8ZI9kP5KtI2ds9MZB2mElWnBtW9/sQ2Eh4jqTjG3PU5GT9MgQ0dZt1gz5R57b2faqsffmoVgwWVh8vaDrNav6XMNBUlTH7FifWtHrnxPpmkI16zkuLAf9vb1m1cCs421hLTxbSkBLF9juOKBX3ixouk2qXvtDV8h4fiPiCqzOrKhco2C4QroPn9uR4AtAAAgAASBwowRux9h4symvKjK23KCJjRaotUsF7+psU7U5tQdG47lBg5oxNnp8wqzA7IO79FObVoG5hqn80IAayV88bUTqxvy1Ltii+WGLKA5RvVn2HbxOY5PcDu56cVyY411KgZmIt/TKa8bGkLEJQ69Q0CvCj37rWMxG9ndYg2l7no4cx3qRAGkfhguR7QAf2SJG9oTAmNr4Bo1IYz5iXpMXGZ1W29hOH5WCdjy9Uh2Z35J+JvKHjK00Ho6JOY2wI/EtsbWzzHC1djDGtrzIxQgVfTsr3OD9GnVkYmxnxZLLlgqDK6QFqLrY3DsMYQoFDsv+auxdb9mmIyRLuPxXTH0dTwJluobhKk8msr9T2gXSaBFSyQLjC3PJknmXl618p2XFrtPY5BqlbJs1dgcfAQEgAASAwC0TaDBj4yJkuAJTd/nz3pCfNbamHv/QenYmXvQdsX+MlqEYGz06qlcwMxhshFqBOYZ2C8MWNWZL8d8UflJklO5GcPdW5+yKG2+YCByTFeVtRixAbDKLnX6IUqJBLl9pHtmjgwEuGqTA1MYwvbkd4MI2llgwyWQDkQwV5p7w0cpal+FaxhbZC3EZzNIWTL2exDLKyfKZOE4fmawoWykMV3SGXgnBP9w+tkdvnuQWw4cOz4KukxdlJitayt/h/vkk7bGqFVjNOqKsaIH5WlXbSQpQqeRV3+8LLZ4UIweZ+TfUyHOHio0I1tq7w3lML0smmlET05FkcfMsP/fExGuWRN55Uyyv0gXWG4O5SLKwsp1wvg497LvgwMo6jU2uUWrggo+AABAAAkCgkQjcCWNDIbTp1UB7O2MkysBo/Hxj80YT2tsCjQIwQiCt3BtqGBvGJkYJJnSUd3IRQfSmrLFh1rF9+pXL3PIksXGc4BJ259S6prG9FYJ5XLHbnqU2khkmI4k0WhfIR7jvyBsbKoC+Y2hh+PXh4gG9eZzgBmYxxjb/jNdKlX/+jDW2mnVkxrHxNMphSgtQ+XcqaKBsb2AkmFo5KW5sBxg9rbH3c4zt1aKjF6WDUxYuoMgETbfZGKRUMWQLrG7rc1k8lOdtPnKWc1p4RBWFL/tvncYm1yhl25QqM3wBCAABIAAEGoPAXTA2Ng3KZUtxhSk2fXSOsSlM4gRrXdch1afGfv3FZx5ItiLuenEiDFAr33stY+Nyar3PU5GDmI7bsvZhmJbJiqIto0zfHjVGFtaCjsq1RXCTqtvcwkWShGIw1iVE6UrlZ2ceVBhbhd6hLOHmhYyN3x1yFD5CxmRFg6/5eKGFCp6xMcWadaxhbCpmtN9Fkt2lanIFa36S2EimLCgFXGPvXFa0NBBN2A6TFUXrseHWkT2alz+mBY/58XzCl4UX5xeYGNmnS4iYHzZ3mlXdpsrGZfy+lGIWdsGt7lFzrThxo4h/KPUaU9/X3rvfVtmL+PaV+gkfcYTvAAEgAASAwFUSuAvG1uoapuhxjxVlSJX2/vWC71xjw8yG9YJ3K2G0WHEN0W4JWFYpnfIC4K5kHBumZkbiZ5zPHB3dZo1llgicjjHTCBQ1jU3RHXqVzK8ciINqFTMPUhtnOYfYUdBPipsoMMMnH/mLaJsrvXlWPouQ+ajNlY6cnFp69c24+CeSxoarXOkICpKpFZha9eQwmCyeb2yWkHPR39tnbuskej2ptWRmmF3NlTG2zZP0mJVQ9brG3hZkZh6U17GGsaHxgvRywNGGq8vrIt3QHc+psecuTbeprdtuCec2D7gxbeUzD8r2Lsw80KCZBw7L6xAzuFCcwkYj918l6VcuZnxe56znmF4jSWOfWdVrNz4jXwTZSB5TJMkCq1wjAfKhhWjrNHVYqVei2SSM+jAzPM6qZ8Jq0TjCt6SmU1tZd2YvK4HZjm5Tm4oP18k1Ct9bZDRLNUz+17tcKmiRRirzK/gyEAACQAAIXD2Bu2BsGI5Zdp7uFtzR/PRWemh059ysKLqQKNHqHlNR2ndEu3czT/1+Fb9WSK3LzNUYG0oL6jwJZkmOYuQ494qkHrHWUtvYMPPwHtKv8lVhmXUZmBU3Ng7SzmdEebgFDXoT5ENcNTljU6gcIyRaKUNqdY+KGBuuwAnLm8zaSWHtOLccJoff5M7PivYFPG/Rkh9oEY39lENY9YPNir4m55iVSiRW95CsYw1jw9SqZ4fMWiTFTQmnqTxaVE9ii/tonY7NZCH49tDSx9sMVoOwWsWs7sEsvYFWKqle3UOBqTtc6Ugyw04HRqt7kNk1Zi9r+6kXLm7VD6ZppAqM24fJzApaCIZZP2VRWD+FLb+cseHNfYG5fXZ8YaWXt1mpVwhmcZOfy6KQa5TzjG3sd397l/2D914lTHFPg9dAAAgAASBwAwQaydjOuXjANUOSABrKJj2VstF4MsZWmnnQaMWD8lQTwD9f/8v3fyXt/FRlyR4IbwIBIAAEgMBNEABjuwnK16Pe6uZOs8aVWkum+cmnjV0XMLZqJWrwdwa+THzzR6+xsftVgzOE4gEBIAAErogAGNudvRqhdbyKmydZz/OKPGmj1giM7YoO2uu5AWjUbgPQgAAQAAJAgCEAxgYXqg+HQJuVdAZjEn+v+ecuwGEPBIAAEAACQOBuEgBj+3B8BUIvQAAIAAEgAASAwIdKAIwNjA0IAAEgAASAABAAAo1OAIyt0VvoQ71XgHoBASAABIAAEAACFycAxgbGBgSAABAAAkAACACBRifwkRubY4iin9ou+OztK2xLtXI0wazuW/SFQ3hpCKS63Zfzrgew0jtXuNMLbAof8v4u+dfsd++++d8/gwcT3VYrwH6BABAAAkAACFQRuB1jwycy3nCoBbNatiqESd3+Mu9d99+UstySsSkXbPHC0wlri1KPtYofFYXjj6lhpwM9j+tCf67haH7Yom56fOrdjbVf6Ce1toyN/u//zCaD/6PnpvjXKszFCMAWgAAQAAJAAAh8FATA2CqU8UZaXUNOxrP9PZff1xUbW5vnD99CdO3S4guuCQSAABAAAkDgygk0jrGptUsF31FR/Dfz0oEqrAmNx/NDA0IsSqtbKrhDTBzORE3HM8O+00kKPXV0fMmvFB4e2oqeKzodpX3xwnQ4pu8Rfm7q8qSmorQ3mnvq27FeMCsqPKU0Ts+Qp/0DXCIVM4WsZN57VPRS2aceVwt3sVfrQ7R7lexfzc5EaS+VGX5s5lrOQE2V15HPiqpVnixX98qsqL5UYA9ZXuCaxqbu0d67/2k9yc1PPX/49uvt4Xp+cuU9EjYIBIAAEAACQAAIVBO4HWNrsZ1OrfpbMOLBes76WHggN67AJLOiJsM6PeN3cblC5YItWrCxvzJR00dFdyiAt+IKpWtoi57y2ZlKmg2hgjtM6U0ErrHr/VmUNGRkrsWWcsezQ4+teI/jQSjvOypeYByb2bhe8G4ljBYrriHabTuDowTaS/uCLUpPLfnbNWYVQY3H6fEJ5n0MGZsvnh0cMCkwrcqT8UYPtYJKYriiRy7GJjGOreXxqTueHbbZ8R6HcbWiwI5BMmMxqRWW2FSYVJUHh7S//OO73HdfuVTVrS73jvaXfwRjk4MD7wMBIAAEgAAQuEUCt2Ns8hWWNDYcs526owlWetBrihcgZGyl8FvLaNpLxbowXGGgpuJpo4ZPO7Yu2JjxXgrMZFyn3UuznPxpQuMXMTa0l9ygSYjScZtFu4smdJyKoZL7tnaUSJuQsZVG41XnQOswtvcqMKNu9Robphla+Ne/ffuvPm25+ck3Fo8Xvg8EgAAQAAJAAAhcM4G7YWyK1lkrF1dD8bZpPz82H2VF08Z2Xh0sh+54yqDEMVtKnF1lXz+1aRWYfWi3OOlkI2G4AnMNR88fx4YxZlblMer2lzkvSQozPdFO46zAMVnRJRfnOu2h8Xi58NVhbPbBXXrSySdVMdfwBdO4dfabR2upd7nv333zxy8sdcTkQOaAABAAAkAACACBmyFwR4wNU3f582jsWntgVGw/zDi2B0IsjUi4jzhj80YTVY6FKzAkQOMT9QnQexqb/y4ZmwLDIcZ2M4cc7AUIAAEgAASAwHsQaExjk1qQzBSbjqcsvoyXyzwycTWUryxYLdxIONyZ8bFZURM1JZXHZLOiM35mQgOGK5SB0fgFxrG9V1bUfTXG9v5ZUYX6vt7Y/6maD0BeIOoG49je4xCCnwABIAAEgAAQuAECjWZseMtE2hs9NfTom8oXKlOgxdvQTFJRThNXIJcqesmYzmDGB0JPqeKUz86MUTMbxHMFLAHLKqVTIndpQUPiUgaNWoHp231Z70XGsWH8zIMBAtcQKoLst7EzD/xo5oHfrxJmHnD5ViYrejXGhrMzD4YeW1s0dsNq7mIFRjWtdxybAsNhrugNHHKwCyAABIAAEAAC70Gg4YxNoXT0h3LuOJIzbnUPPjikdGZ9R5lSDhRjjC2eGXImJtEqHuWrewjrcRzR7t3MU79fxU0RYBfLKMxQuXF/7OkFh4UJW6tY3WOA5Fb3QGuFzJat7lGXsSn9TytW/SjNqGALXPTFc0+51T3Es2tlQ2jvYWywHtt7HELwEyAABIAAEAACN0Cg8YyN97OqyqOhbN71AG9FjKlUzDyQ/a2s1lTtpbG/iSa9FoYtlbNWr6oW8MyDqyIJ2wECQAAIAAEgcLUE7oaxNSlN+MDOOJouWv4M0I/B2Frt+tFZlUbfpDR3+TJu6rBLvLTb1Uoqeq5o6q/Z7+G5old7mMHWgAAQAAJAAAhcksCdMDaTcb3oixcm/QvCUhpctT8KY3NZwrkZlCamp8MJo+FCKdFLdgv4ORAAAkAACAABINBQBO6EsV1/prJnwfIyNuSv+ntJaoXF3q42mgVbAwJAAAgAASAABIDAhQmAsV2/Dl64MRrK5aEwQAAIAAEgAASAQOMQuGlja2vvbpzKQ0mAABAAAkAACAABIHAnCICxQYwNCAABIAAEgAAQAAKNTgCMrdFb6E6IPxQSCAABIAAEgAAQuFYCYGxgbDdFoG9n5ay4if4yI73XvVPzyB69vMg8mgLGEX6ABKB9r/sIuubt95LLyexY3zXvpe6e73hxzJ6jiovPy1eSqntTjVa1Bi+P+hFJM1eH4kZ4thloyxBoMGNDq3Wc6luZ574vzTLPm2L7mRq3kNZwzh2nvdHc6MsFZWlNMnX7y7x33Y/J1PBKhBefyHjDoRb0pCz6qe1yR/IAFUyePsLVvcF8ZdfsDCwmc46B61og90pQXHYj6Ex9A8amNy4ejllNly3tNXWqvp2VZHak4S5XV3FOv6E+fJvt2/zkNHKSMOJXgeuaOthFN0uM7dPLntu4sXlPY7vCAqMzcGTbX7YkO8fN4Tymr9HYev0v3mbXTujNM3rjIOPxOKTKIO5das3r7OZxrJdv1o7F7ObJYe8leuAt9WH1I5ITYlbO+H8zw93chf5hmK68LPK1lj6Zq+xEML1yQm8m6bX9tPOJWfprtTfCfVqjS4ib40Kv5QirPJnI21AbZh3bf58+dieMTY2PpmZ2U/2EFWvFm9od/ev56ZcO3ufA2C7UgS7Rj690+zdkbFda5gsd7Rffo/bhm/wGuXDeafriG2ykb96Qsd1mleXOxY1yiNXRXa9QgOpskY/Z2Pr8Y4uBR1aHbsDx0HMaPKPnn9e+t/xgjA1v6bZqBqyaAfvDYG7z5JRAr62aPqKFs091fcaGW0f26Mh+Ythq1ww4HrqoFx77JQ5DMLaqc8c5c0UlY2yawCiVftAjijxpyHHqUIuptUsFX/njONlHkWLoce8J9tHvTPs5hnbpcSeyb9yZ8W4lBpcy09GCm8raJtgnxzOnm1arwZ+eRo8oLUyHY3rRHmvF2PAu7b37WrXqoh1FMsbWTS5zGUPhFiRNdOIKzOrYL8vutT1PRY4P0f09Pus5oReD1Px+fuOkEHwbe9gtIFK3WXfm9vORs2LkODu36GiraojK0uJ2IpxdSxYjx2mnJ7YiCoO1WEKePW5T84uu0qZw88NAir25Cb49tPQJS/vqexfR+5GT3Pwi6am4W5U2NpkC41biTXrluMBWZP61sHe9ZZteI2POt7m1k8LGQWpsSAh8mobfcgyrsqLmRwHmboy5tZ1zWSshSFBiCraX30gWIye5V2/8Hdx3tJrnh68OChG0qZTzCRulMA2/pVe2Ud3X3u4Mv86sJelgeEFVsdnu0KtkziF61Fhz74JjO7eRLG4m88tvQhoVe/FDaYKNMDkSRrfjkePMC/b2EWcCAK7SKb5jMRvZ39Gwe+l0iAgSZQAAIABJREFUjZGoHdGmwiEdtyn5XlRRtrL/6nWexPIxzdbRYeVuXlXPUxsnKQt3T6w3vslv7JEdOK6Q7cO4ApNrX9eLE3rxdejFXm4jSW/sJyx9Qh8uEWbJ8xjl21euQ/ZRK8mM0xVbPChEknSQJHWl4ER9XaL5WYqPCvDH6f4O3yVwhTWxkTwlrOT8PtsxThEl2T4s075ME7RYQnPsQXeSX9mmHqJTAa7AanT7Ei5Rh2R/hTLIK68XLMF0EIUiCsuvHQrM7jjgq8Cdeei5JwJ89ofV/8rikj1LYDjq3kyfjCSZurA9R2Rszb2B+WNUKu4eRmUVihp8G3vUy5aqVoFlcFWXn31HbXxTqGjHtaBDdDaQjLGVCJd3SJm91D5OSweaeXivuPFmVrT36g3WMLYLdQlxgd+nD7ONKHGOwtGFZi+3lkT9Kvj2kOCuAuefCWXChDLGVjqtFdb2UyMW7lqDroaiS5WYoUyHlDvoancJyTMhOvVF2FMfhitwh2OfXgk4mjG8NuEPK8ZmIEe3YlpM3e7JTL50sQ2AOzMzS64mDG/qWRhaz01TudGXh6PRlEHJHX4SWdHWWWuUFh5p1TQQm4mnjcxauLgz4zuix51I1JpMO+Px/DDX/GZDqOAOU3oTgWvsen/Wuxtr53OvLbbTqVV/C0Y8WM9ZHwtqwhTAsvGn3Pd/Je0XTcv2kYv7MSOu1r3OLAe4OnJdTSo+wVyPKe56jJmJt/RaEHULxtiKmwcJRtTMj8JM72FOBM0WaiWZm3O5NN3mjiFy/riw+Lx2rFhrDOY3D04JC6Ea8L/Yp0tDzToX5k7olTd+Xa9Z84RaTtKvuBwKOolETtIjQ4Sq10GQ+c3jQyPjB23PTjeS2RfP7Nz7Z+UjQqSMTbbAuGskSD4asndwFaFfediK6C3bxc2zrBOJmrrDxTgEd1Vje4XEOCd0eDMFbus2a4b8I8/PvxtrHooFk4XF1wu6XrOqzzUcJNlcWPPQ4dpZfs7l6OgmjIvpDS6XjWRigwxoBshXyWLwzUKHZWc5KQT8ue7aG8hF3oZ4/8AVqlnPcWE56O/tNasGZh1vC2vhWebSxQzsSGYdQyYFptUsZiInjKljal0gH3kb4NWZGNmnVxZZ+zQPv6Uje9TDPjPbjhukn/2abC8qXTnY4gn/qjs8mY3j1IjVruomel2JIErjstdO08NwfmMbVaHtSWLtJE1w11Tmt1J9uEb7vjgpbh4coj6ME8R2IULyWSrUT/Jzz+2qTnPHgIvwLJTECJW5un1lO6Sij1o5K66RAaSVnQueY6EX4e/RJRQYLhtjsyY2zgpr6O5F34zrO4ZmdZ24QrYPy7UvzugUvfJmQdNtUvXaH7pCRt6P5bq9TIdkW9M8sofuN+YXXSqVurnb/sgqpEHri7HJ4pI9SyDgc8fFNZI09plRXRZjw+yoD87Y1Ipe/5xY1zCzZbuw8ZZ6ZCFUvfZHwWzkICZK/0kW2O44kMQldGbJFzUCKlLGdk6HrN5FjeNU+LJWNUS9StKLrtrn59rGJnMmrFng+vqw7DkK73hOOVyzOqZxUWOx0QTs/DNhPcamNb4pRPYoY5+5rdva+4QkLOz9ufZhmN7cI0vnUuFsJtshaxx06MZSKlEufyZUOZwH9PKivRnT9gZzkb0dTelWUPYs0fb8dCXsb8OI4e2c50m5Swjll3/RYFlRiYJq9aGCDUmS1bJVmHy5oOqx6l5mvUc1jQ1Ta/15b4g9+6PX7hA30A0ZWzSh41RMq1ul3asLKMFqoKbiaaOGP5bQM9fzF3rmer3GJlFHfqdSVzsFG5JhT3Pi1yjGViyFkZihUcxIXv0jkl4LuoTBm+hqjRLn/F6qX+Czcyf0Ih+Zb3l2GuEnB7Q9T0dOEg/5kLUukN/kggoO57Fo76jk9BzqfyZiWzQQoTv06nxju2CBmcOJ9DP1Yoxtm7cW3PHimF4UhZ2kruh4ubXI0yjxQfevEV56RDdw2ofhQkTYO0aM7BWZe3R0Z/kKnXzRJWT+mVaBu14c552icJqi0z9/kn9hLR2o6JZLiJBhuMISW0uePkLui04upXE2zBWOG/pmiQWTbAgWV3BXPqY6veTyWWl3zU8SG8LXxD1H/LpU2XIgqOSFuWelyCXxll55zUclVa4XB4VXAWr+uDD/rPxiI9GH5dsXd704KQrjqFpQ/JgfrGOJrZ1VyK64hNXGJtchccbYhOGh6GY6wg9trr9LoDLUvNqV+Is6jFBycR+Wb198YS5Jz5fgCz+X6/ZyHZL9IWNsJcUXtoYrMEkBEn+h7LUcLvmzBI66N3cVL9sU228dTwLluoYrBqiVZJof1YQr8IW5k/yLISH4J1VgWVzle6zs6pKXZ/YnUsZ2ToeU2pfccYpKgk4aTJyv8GqRDy5WllDY5nnGJpyLxGfCmgWuqw/Ln6OEEjIvSsf++WfCeozNhOIUb0pXNP7IQuHJCLkgXOn493H5Dil/0CH4Ul2i5pmweYBaTmZfLCaCJ+nhUn4A0ZAlLNvK5TBlvtb4xkY8COeGBtSKHnKSSmhZ00I6VdvYcMVAbJqNq6F4G+t8iAiTFd3hrVyt8uW8JKnEcMyWqkiw+o6KT22lK6vQG67xRanHixsPORAbV2OPHC7YwGRFS4kM3D+fpD1WtVS+o7h5IETpxFvmX6OrvnBJwxVI/tjJAWpdIIcCv3zvaXme2kwyAqcSdsduBOUsGH20o9sOLhKGAgzIpcSzrtC+KmYeVOc7hAKbej2JZZR85DM43LmJyQUEhQileXiPDgbEeY3qKzqu6AstnhQjB5n5N9TIc4dKdD8k06boxF2qCw+B1cFgQAjRqY1henM70ILuLNnKolGlTNM4nMcF0fVGrVnMinkqMIlo/CZnKujksvGGr2Mnk0vlZqUgyKyhMhdRPjGHsnIpC5cJZWSuJHAyvahUKb4zsO8g+eOZ8y9KhcHwZksseFbcIBcq7wQk+rB8+yJjY9SW2SlzjmPjiLgCt4/t0ZsnucXwocOzoOsUrtlsOavaV7ZDMsZWinSKnek9ugTau+y5mOH/qLJfyfXhGu2rNwZzkWRhZTvhfB162Cd4s1y3RzSkOmSJVfC10F3FDS0lQHJdApPDJX+WwFCSK7LN3mWJ98t2TjqSLG6e5eeelFL86AzD9zfhBbr54UolWWA5XOV7rKyX1OWZ+46UsZ3TISX3JXOcor2oW3qtaOiV53TlJPfCKjSx5HZqGxu6P+f5iM6ENQtcTx+ucY7Cm/v8zm1mGAbXauwdy7lnQnT/LDV5Qjorqnp2upak1/ZSnsAOYSV4RZMztlodUv6kKmNs55wJ1Sj7cSYRJZUlXNkPJVtc9s07YGz9ZJ43tsMutrats1bqPGNj5nWOT5gxIuEWVI8zNkowtvaXOR9vbN5oQns5mvxhI4v7nC9IXO3QplqenW6g+1TriHhiF2NspXOZyj9/JhibpGfIl+r2jU26wG3PUhvJjMPKjksVZxnQpUskECiKcL6xYbhCZe59EhgJplZOihvbAb4byJGRMzZC5gJ53nmKSS6IAlfoHIFCPpKXNCbGVqpjmbExpyQkr6gkpThrLWOT6UVyHb6iS1R+Ta3xZNDgwoNYryCI7Hck+jCKOEqJLyP0csaGtqbvGFoYfn24eEBvHif4sVxsY12RsdXdJdDeZc/FzDg2PiDNdSr5PlzD2FDHaOtzWTyU520+cpZzciM35Lq9XIcsseLz5lyp+BORpABVfKf8vxJHUK0LJMpbSXZvdCGkXy06elG6XxgWiaM4a615uHIFlsRVXvKqPiyVAmN/ImVs53RIyX3JHKdlJUHiKJ3aE30N+Y0QfsYY3eH+K9cl2PLIHkH19OEa5yh0aAfDAV03o9SqwGLyWowNHXTd9ofPSUc4u3FGL3ODQOSyorU65PsYmzicIWoU5iBCSfzIGb0Wrrx3lSVcuQXJniP7ZuMbG8qKMgtq2Ae38rZRognTKidS7niFsQWqh5EpnVkvSVlChRm/MLEUxdh8pd/qDet8VtRETR3lBk0Vt/Ky4PhTHq7Au7TGfq3mwjMPajRYqceX71c16zkpzC3GVpJpghvRwo1jK906W6jgGbu+EUpCbQjjgSR2p23rNrepRDXlsqLcfd65WVFmUJ1cEuoiWdGKdZjkClxxE4zOTZtccodJDwkjGNhJGOdlRUtNhi665eEoNC7QpOo281OWWP5oj6WRVSWS6EwhlxVlAorSMTYUIj2gRMPe0V5k00a1jA0lj1BidAgtalVa3K5GVhSpiVQv4ipV3SVQ9IsfNVjeGzG8GaWucs4hBzLXN+yoO/47En1Yrn3PNTZ+m8gCC0z8mH9HYhybXIesGWMrtekFuwQqQLM1EWEjzaKfo94lYWw1+nBtYxNqisYp8oe5XLeX65DsRpDdyhlbmfFXVKfmf8VHkGQSih16K9u90S0Bcx5gpvuVbp8GqJUzUby/sgzltyiVnzLZxhIujmFzp1nVbeIDMwJY5g4QhcaFd4QXSERelZ1PhI+YFxIdUt3SbVZ1CrFA/vuSx2nZHhljE4+LwPDqAre50pvcMFZk85rXuU3uJ3Jdgi8Au6+qAtfTh+XPURW3ZyjuflljQ3ewUolO/uyt7g3kI3vcOGB25sFw1eqe8h2y9kEn1SWYPIDMmVDd4UlvHCceDQTmTyrHh8gSLmv98mbCuj69d7+2SzS+seH4RJodhdbU4x8O52ao3PhqYnT3VM/NPMBbJtLe6KmhR9/UKrIQDFdoQuPxoq/cw9iZB1NLfpXGrLIlpuN5K8EeZmbDesG7lTBarLiGaLcELKuUaLZpBVnRf69wHBuTQ1wOONpwdTMurova+Ca/eVYUWQI/8+AkPWYlVL2usbcFId2GMlbCePkBxyNPzCOe88ysZFs+NwrNPIgcJCwDZlXfQvnMA/88M/NA02vWWNHMA37UETprRE5S3MyDcH7zOFE28+CJVdVtJ8K5SMU4NqaOK4HZjm5Tm4o7wckVWOVKR1BwRa3A1Konh8FksczYzvLzaOy/9WEwi27Tz5t50PGcGnvu0nSb2rrtlnCuIlOMzolnldPlhJkHGjTzwGF5HWIHQZcP9E5tnLFzP2vG2HA0TFViiHHnrOeYFoZmG5+RL4Js8K/2yYW5uz0oTTdhzmiE3MwD5lOpXsSePiS6BBPtP8k4nzk6us0ayywROB1jhxOpXM4DeuW1HV0Ce0OvTsqyWmwevKIPy7Uv+rJcjM0Sci76e/vMbZ1Erye1lsyUn5erYmzMZUyyQ6JxbDJZ0ffoEogkwpV78cTcjI5T0alAwthw+T4s374q10iAfGgh2jpNHVbqFULE3k0xl2epbi/TIdmy1TA2LRor+ZbUdGrLTziiSokuMLK40OhMND+p6izBzjxA83PRzINuq9G1Q5TNPGB21Ee+StKvXOx8CDOagLKfIIasqm5CZw2MhSlmWCdbJKkCy+Jif4I4b57x4z5F1WlzpSMnp5ZefVXd9Y/IQuTtTm+vqa1Tz6neOR2SWXpXPHGY21H1carWuA5fLPofDjl0A65HntNgsrhSlrOWKnAfuZwsvAos6PqsGis5f1wMsvPP0PRhlFmWOBPWLnA9fVghd45iTuavFq0Ikco+8raweVljY46Xk9TwgLmt08TfP5sfLlKE1a7qNLGXp9KYNibzy63u0ecwPt9xupjsv2yHlD/omPaS6hKyZ8LmgZ3lZJ7NaLc9O62cgyVHWNQDeQ3lD7d7i4e577+NuqvDT8I374CxKZQLVio3zE0P4esmrrbS0R/KuZGcFdnVPfjqmYzrtG9XyIGi3zLj2A77/ZmZeNEbRat7lOgo0eoeU1Had0S7dzNP/X4VP1eU36DU3q/Q2DC16tnh8jG79HP5KQbdvggnbqYYbFb0NTnHrDEhsboHtyZFfuVtYkS8lqzE5Rkdb8PhLFrDgl/dQ7hAtlhIfqGB3Pzr2dK4JZx4FGDWCzij1/YSxIBwf8mu7lHcTHKre5RSt+xRYaVesXUsneDEi2iICowTljeZtZPC2nFuOUwOv8nxcyRR9GstvOPYRkbIrO7BD4VB8/XKB2Dx4RDVk9jiPlqng52ILlqOBPGUNDZkimj6OrO4SfXqHqgW9MZB2vmMHVpRy9janqeY1LZEFxKWP9hMornrL1zsSOTaJxfmPvusNGyf66KlafD55TDZW2axaFpDZS9ijyPJLoGhOe3MCibFyHHuFUk9Qvey+odoTntpVpTKlRYt9oECAFJ9WK595Y2tL+ARVhndTzmEhTHl21ch1yHlje29ugSuwExG1POZblbqw5IxNlwh24fl2xe3D5OZFbSuClqdR7Skjny3x5i1Jyo7JNvZahgb3twXmENrkRQ3q25Xqk96NXDJniW4hSHYFWcKaKWSqtU9mOneabRMAzt2m1ndAy0bxKzCMx/0l03Bqy6wLC62+lICxHZ7lWOEZFbVOWNnDomOzd6FF3ssFv48LNchuSuRnLFJHKeqJ9Q8uyLGGb1xnJl7PVs+playwGqVlWJWjUHTfheDfjTxGe1avkucU+B6+rBoiZbycxTeMrQzf1DYOMkH99PO5zuXzooyq+GEc8w5XLh/1htfp7jRzGWLFjEEVHbiDX8ZEq2gK9Mh5Q+6Wl1C6kyoQst5BIMuPkZrYpdrEPVVGcJchxF1NuGdgS8Tue//TH5echLhI/7FXTA2DMcssUkqZ3XOqtq1CkzbojHxy+dKVZuvGzO9lJ7y8BPcmPfZmQfK0ndqb6FRPm15crpxwk4h5ItUMfPgCmtUmq7I7+u9N46meomH3l96g1xJmPNU2RJKV7Xla9oOypOWBpy9N8/L/VCiF11ug9UXdXjnOgncuW5/TUcTbFYgAF1CQHHnX3zq+cO32T96jbUqcjeMTcEsxmZZSk9RtDdOu7diWj4lKnN+VDcpzaqJFFqGTViwg7k43T1jw/VtvbPO/bIFO1Ctr9bY+maJJ3ZVp7a50z68XbjUivy4/dHzWU23vlllNr7ObBxf6mkqMu17185Tna7hxQC/nm2tA1Kmvpf+iVwvAmO7SwTuWre/S2wvfYjdTmWhS9zRhqsutmrsd3/783kLu94ZY6vvSta6YIsXfdGsFc1UKENz54wNzRI6o9feUsaKDNfVGtsAubifR5PtUdiZrJwAWM7wnLbAXY63ObTsfmW2tKwhztnIOXuE81R9MGV70Tmc69vL5doU9nUuAej25yL62L4AXeLjavEP1NjgOgQEgAAQAAJ1Emizks5gTOLvdcUzJz6uyyTcigCBBiEAxganHiAABIAAEAACQAAINDqB//aj1k/Yv0+67gmvr+/Fzezl+soPWwYCQAAIAAEgAASAwM0TAGPjhPXm0cMegQAQAAJAAAgAASBwQQJgbGBsQAAIAAEgAASAABBodAJgbDfaQm3PvuaeN7/7+y4+H31BuYavSRD4ZPgXVPKv2e/effO7p5/caFNKFAYaFAgAASAABIDAtRFoMGPr/2o6njQoO//hVd79xS9+fG3VvonLrWZ1LP53or+zel+tz772NqCxyRe4ugrnvfPZo216cvqzqq/9/HE0//gfO3/8efJKCLSO/+4/s8kvHxta73RXgcIDASAABIAAEDiPABjbtQVm5AUIjO2qjE0193+/hejaeQd5lTdfW5+HkgABIAAEgMC1Ebgzxvbj3l8RX2bRw0Djeec/f6XXcVed1v61ETLvPSp6qazd+/M2RKqzw5v1kmf23R+8u8lHk7+fjNLu7d/rPv3kR8pf/SyeH/vym5n4D5OLa4/+Oe+N5+2TfChI8/NBZhe+eH7yN2tdn3K7aJv82rt71D9/5kRPXMiPzf/8nIiObnPiCD3kVPT3tUlTukxKG1tp7z/MbJ89+onuAhfazrZ//O3PyLwbPSP172Ovfq3mOopO/fRoYvcHL3pA6hnxOV/Bvq+c8W8+m/z92O4P3jg9/eVml5IpVc0CI/L//Hf02NZ4fuKLtQ4WS+/mRDQ/8tl9tpBtT8/c0TMjapRnxK644kXfEf2zz4RAY80YW6ehx2Dqqie52TX3f7/9eufzen5yAaqlloIvAwEgAASAABBoEAINZmx9m2Pbv9e1dnZ5v5lc/HmJkeZXI1Rx5stNXd9PP9E900//vp/NNmp+9bMo7fzi1126n3Z89tVEnJ5A+oWMzbd7pO/9ObFd9G1/9Q+9v/hsl7Y/vc8YGz02/azjWdJ99MPPntk6Jr92737VgUTnp/3/QrvJr/R9P/2k/9ePt2n3l79m/O+TtsmvfUc/jE0/a239pPUnv3fK5DpLpWW1qb4Ym073xQ9e8itd70/bdLauzzdNP+FkqHKznJMhq/jxT34/Hf9hbP5XHb0//aTv5/2vNnXMpz/+x6Ppo/zPJqfUus9001+7438fZHH1feU8Ks58uapWfvIjhJSemP5pafuSBf70FyPUD5Ovfv0PaBe/IP7lh5kvfsEK6yfPztxU0qD55Ee61bFo/mef95c21SqXFZ0iyG9QYf7x985/2WSwl/So5+XJu9x3ezMdou2UPpV8s+flCRibJBl4EwgAASAABD4wAg1mbCIdEYP+ZPobL3WkYwNCou+0PfvaG/03Pfd+Z9di3rf9WzUbY/vyVz9u7dR98YP7i5//qLXT8CU96f2MMba/D/Z1/ki3ORH/pl/3yY/6fuuMJ9EWejcnj/Kf/YSLBv34s39zx7nAGDK26L/xe39G7NJjz8R2ImMVkgLEFF4qxtZv+md65ouf1zN0777xy5JWinDp9L/5wfvPq6xu/qj1s0dkcebVFPoCMjZhaB2C4/2NaLCgVIE/mfzGu/3bklr95PczaKAhW+V+w5d595dfEf/ywzSvcXwx5IxNhhWDpV5ja9UN/+rgb98ezPeIugRXgE902h7Dp5988uOOe9qee/9f2yetXQZtj+6c4Gj1duAdIAAEgAAQAAKNQeBOGFun/je098tfV9lMZ9fi373k5ic8ytanZ774v+mV/6+9+/9p40z0xf/5Y6ywcxCD6LhA7IXU5sY4fPFdH47ZUheaQkgcwsbkYsxloYfI4YY1WZnKycfysXbQDahh1+UKOOhAKmQVaXGlmkotlXZdKZWlRL5SJP/kz0/zmz96ZjxjG2aMARsGeEsocsCeeeb1jD1vP9+GtLGNkixCZjA8JGGFbGF4cpBPbIlO4we/0fnvCYHM+NX9jT0SQUhE2zOJPaH5AY7vFRXa4T74TU1f1yJ3735e05S4dzGsiKFELgAJz5FLbB/Ufh59tME9Yvd6p78y/9vHhw5W3Gxudw8+flXYSJb907+2s9zD6UGxPI3Nf+Im/t9nJKzwvaIkp5JnEpwCVZkCk1SX17crdHfySVfYF9/2OfHqP38ruWXLcJLEJhb48JHK/OZ3z/feJt+//WVnzibTJldjGX78+Is7t7T6Pvfjx6Pdv62/5Xj8+PHQLfSfZitIhvRY/ngyBCAAAQicscCFSWwTJ05s08UT20JJiW2x4omN9HI2DxoGF2x/Toy+5u4/7DvqVFBKbB+XN7EVpLrC6/2//Pevh8n4tl86W6WRakIUqHhi+03NB0Xa2GpuDY79T/dn/03b2PNwfGzYcr3eNOAeHxtsqUVSgQAEIAABCFxIgQuR2D44Qa9oro2txMRWtFfUfYLE9uGzOxu5btb8+FXz+Z47/Pq3hekn7wmke9f9H36p7TDvT/knWbZX9FBPXzNpklTqFRX6gsmuD7WxyRWY9IrK9UeTIn34Pz55xd13P/jt9P91L36dncSQPaiPO1m+G1rxGPMPRHzcaP5vtyzXG8X/lvBajGNTODeOYYgtQAACEIDAhRC4GIlNGCb/kJ95UNvc1zz4lTk78+B/kZkHT/5XgzTzgKwBVtgrWmJiq/m4yMyDkyS2mv/xSZi7P/mgtq7xX+oKm6Bavxp+ner9vK9W116T/dO/Gtxfmz8e/EDX/kHrv3+8WNKYtuzMA/e/NzT/6wfGB6ZJv5AC/+XfXj96nfps8MEHzR//9uHeqDR2rXivqGyBycwDMquUzPkwDv7284VPnjzjo2S74c+p0f9YILNT6wa7FrmHT/Kn0Da3fMm5/2OhQdd88NiVc9hxx7H9puYDzBW9EJ8yKCQEIAABCJxe4IIktpoPpNU9Jjb+v4LVPf77QnZ1j9X/2z/5P6XVPY7dxlbzwW9y62uk7v95QRqbRcaxnaCNrabxg09f3wtz/DiwgtU9flNz8/rDvYcbZFjYIxIoP/hNzc1m9959sh5HdhENaW2RonUsru7xmqzuce9PudU9GgZf33vFTZDVPX7++FNxVNwRiU2+wPnyjxb3Prn/oKbmAzJRdPVnc7M4UaP1q/sbucU+SA9v67PeRf5wClb3KNb2c4LEhvXYip4exbTxQghAAAIQuFgCFyaxXSxWlPZsBHDPg7Nxxl4gAAEIQODcBZDY0A5xkQXIfUX3fky8x31Fz/2jBAWAAAQgAIGKCiCxXeS8ojwmrKInDTYOAQhAAAIQgMAZCyCxnTCx1f7bwsdP/lPmZ/Lfj5rjWfoem6/fl9vFk//8ePDItT9K3wueCQEIQAACEICA2gWQ2NReQ2cc4bE7CEAAAhCAAARUKPD/aCha+Kmtb5IeV+7B2eylcuXHliEAAQhAAAIQgMDZCyCxZQPr2dNjjxCAAAQgAAEIQKBEASQ2JDYIQAACEIAABCCgdgE1JTZ69OvE+ze//BRhRw1iX22JwRNPgwAEIAABCEAAApdYQE2JjaQ0Rj+w+H3ypxdW5hKj49AgAAEIQAACEIDAsQTUlthoDWlp+/WrASQ2tTfPHus8w5MhAAEIQAACEDiNgAoT2x++Svz61X0kNiQ2CEAAAhCAAAQgkBVQZWL75R0S22liOF4LAQhAAAIQgMAlE1BfYqPap3be/fi30VYtYjUEIAABCEAAAhCAABFQYWKja3sDf0+8f5t8v/W4/ZIFZBwOBCAAAQhAAAKr0c1WAAAgAElEQVQQOIGAChOb0MY20arFUDZ8q4AABCAAAQhAAAJEQH2Jjf7DVwrj2CjtTf1HN2tp1BwEIAABCEAAAhC4WgKqTGzyc0WZHvafb5Mxn/Vq1dAJGk7xEghAAAIQgAAELpmAChOb0npszJ2//fo28Y37IyQ2CEAAAhCAAAQgcLUE1JbYmA+V7nlAf/rih/c/sv21uIEVBCAAAQhAAAIQuGICakps2fuK/lP+vqIdX0Z++dZtulqB+pK16OJwIAABCEAAAhA4mYCaEtsVC8snqzC8CgIQgAAEIACBKyiAxIZGOwhAAAIQgAAEIKB2ASQ2tdfQFfwagUOGAAQgAAEIQOCAABIbEhsEIAABCEAAAhBQuwASm9pr6EDExn8hAAEIQAACELiCAkhsSGwQgAAEIAABCEBA7QKXO7Fp6yeS7hde6iLPQmVc8dD6ku4sD8HIzkbjvUa1n7tn9gWryspObqYX9jILe7HOSt0kzdK7ws1O287soFSxo9alOaKaWdgr9/l2rHO40elYToVIMdIj3doTyWg7WY4/kEwgOFZ1lu/Wcu+r1rkvHMjC5lpzuTd+ItsjPojOpMCXp34rUQXY5pkJqCyxmcMPN3YNNdrrntTo07Frp/68oD8J9ww7DmyHvhd3B+erKbv1Jfd5n+FU1h1hX3S3k9YafakyfFI3eqejSUdHwTXjAiY2s2l6d3abXMBC2/Fxl6Naqkem3/Y87o9yoZ3UE5+nIZd+FF9SZfQMLycDUbIpl7P/PK6FFtsy5w9OMY2GakZ/qrNFrn7FDRpM01t37Gbxv0dcpS7V0+TSVW0361pM+He4hWjatxLpsR7zfSq3TSU03UwitL5maiL1e7oTTNsW5OQ+B8jnQ2jRk3sjSO8ItT6oHtoPlSuxFTvty3ael7PAipWiUL+007WTGunWVt3eLRuaYhnKJqb0dsDv1SxwyRObLD0SmyxL7pfHudrlXiV+xNQOxULRxMhtO9NoaR6K+PbS44PC5dbQ9jy1sLlrs9oautnJ7cycN5vAFF9C9zs2M/5F1tRq4zeVctmPeeUWS3W4nCX/pt+xyU0PlSNLncmlq+TjUs1Hv8z5pjV598e981a7o9k61cumFqL7Pcdq9JXZptLxak3P06Hg1OmymrBxhSs6hcR28Ito2c9SJLayk2KDKhS4KInN0vzF/oNVbuI1N/oq3nfPnqVsCT/YiHffWxt4lXZvcA/n2fqa7Ecn40pMvM6Qn0O9okUTG/PhRzf1H10vtSNVqY2NtrR5Y3OkhYDzLW9ZW8W2mdbwXDTe05QtJPnmzXrIpaKJnc12DwmdRJmFvX1bI3ka38a21evd90UzoZ1EQZNVo/MOm/BHMwvR1GxwvpkRNkvXOvdDm2GxI9V+Z5174rIQMX7vw8616c10KMr5WLZZauVi+nuCZFOh7f3h6a25k/eKao2+9MIKy2SjEolcvpl+svdGz2SUmxzKRi7GFV/YiZhIARRfUmWPBHL9ZQbrInemDRW0c2RHqg7hgdQrqtcNbT3ZTIf2uMBmbPh2Xm8m45mMpkYGpxyLfNPgTnLEri9SvxrK3LOc3cvBXlGls6hIDM2dEmn/eqzXKp54lLbWvjS+Tvr+QtuJ8WlH7m5vsgVuXZqNJu60Zs8oDWW2LXJ+n1OINVXG7NGRE+/5vE488TSUttmbDC2zbc4I38jK+RdZ8TyUNnXowZHpqtE7vZeZFs8cxY9R5XNYocDaTvZA/Yq9osapYTbu2+EW9jj/OqnfbJ4jpwQ3OZhVJW0qO1v8OSwc1OHERuJgtpNRfIP7fQ7FQxBrtto6P77CV9ZOam4x3MZ/FGiKVoqGsVt9+8Jnjn9lt7e7hO82yi+RC0CkZzDw3JktfOP8k7wOAfkCK3+saYqckBQZITA3M2X17ZMqiKZnZ0oQk20ULPYOMhhdEfEtnGu/J2+TlaQ/yjfuLm/ZpI9uUjWH65evd7SxieftkSc2nnBKAZUlthZ24OWantLWu+L3vxA/Gii6ui/mXt1v77BV11sYq6e9j08AFK1pCT94nXk0762roTX1U/Ywd3eYjybZE0h+HFt13+6DZ55qynbrRdL+iXRJE957/aGf37/9LtBa4inYyk6vr5lobfNMfNYrFVhL+ll29nu7bYzRYWNTC9tbJuGqppTYhN3JtcGQZLPH+YKeZqNFN7g1F02P3xY+iy09y1xoJdzWamE6PCPrXID1CJfhYoltL+NnvaQ7snHKtS0mOUpvIq1fEWuHjenwuDa504wrqh3cDUT3ezsMGkpbbQ3PRpPDQm6wrvn3Er1SCOD/K2QCpZc0TCcWtteMYl0c+O8pT/2SX94/TNrYCq5/Vd1b/r3UuNPR0GQzTe8H8i5dGhKAuMDmvsNuq6b1ta1jbR3iOSZXv2IxDo9jUz6LRBDxtVIG0pPmopWwqdVS22Q33mZtYmdilTU8F02OO526JgvfwJmeHhLfKfIFtpGr5rT41YiUPDUsjPFixlzb6Vmfx2i0MB1jjuW0Pzgm9veRxLawk54Nepsb9VWMxXjbKWZ3qZCHHhyZ2MiFP+2yF4wWkDt2hXO4WIGzl+HQgcFnHfPD0x5Th41pshmHIj6pfo+d2ISDPW4bG2nWnXs+pWsyM8b+Nue8KfsdT7lSKIttMR3ajNi67UyTrXlwyTGU9y1C/oQp9pJjJjalAvOHL3faFzshSWLLhHaSk9NOhtFWNfV32o88Flq2wIqfw5RWN50IRePDg44G8o7wOmamhA/PhqGwwznW3GphjP2dvkRou3giF+rX4ViJ37FqNfa1ueUSvqLIV8eh9wWeBoFDAipLbIfKJ3wu17kS7pdhmY9+ktiSXWbho1yrf5p2P8sf/Saf2A591ue9VehjJjb5AjuGtzO59hLygcWN3+Yv2ydLbNGYNduMoe9kuRDLD4gxsrN7qWFr9jJWdTsSiGab5YomNql7QugM4kdJ01Pj0VzHX/VgLJRr2crDkT/Yw0/QN7tifqFFIZocH8x+2pIGCdJwaOtZTvtZD9NKyi8O9JZ9CbnOLawvNTR5xrfTT1y22qH9BTJq8PAeK/qbw4lN3xZMhxa9YjOVrXclk2s4YTyTe5lc1slHk7t0iWfj4cSmfBblb7PgsZkMuXuebQkTt0xrKEMnm2sh01B0w3QitDyfLb9Cgclz1pca+O3XDu2HtteMvPzBgZXWNX90tzN7fgqJTfpvafVyRGIjnemhlSVd8XpXPoeLFlghsRWo5rVSn01i449lMjuWoMBQqVI0HWHfnvTWLnhJ3mlQ+PuiL5ENQIptbMoFJnuXOe2LnpBCYluW3l+FxS6omtyf5Aqs/A6ix1w70vfV3EYOWh0suUIbm0KRDm4NT4PAqQUuRmLT3JgfWM2Q/lBPuL3PQWe7Pvk2to34LZ3wliPzFdzznrx5BsdPbKcGJe9SvtEir0mA9AxmA9yJElteFyfNj5Lmp47aI4FckqM1eQGuWGKT7ZMlr006xPCn6SBdtyeeK1rdHZ7dTowMOXStdpOTtE8M8x00YmKzWIOJWd9YbeuSlNgUXiImtsax4ZWEa9CimsRG0pXPKzb0UlpTkFtY9GbbmUjtKzQIHbwA5F8qDiW2ImcRRVfdjvBzGzMLudRLtsYM7vqjnH8l5vIu2exiXx5FzsADfXMLUr+5UoFJkBI6RkmXqC/blyfTzbewl+voJ72iK/OHv1wpFZi8X4olNr3OtR/Y3rUaizewCee/7DlcvMAKiY1MkeG75MSuzDlhGu/ZJDbKYPIlQ9H03GJkeGa+rTWvfVe+UvgWpuwYg/yTqthjEnGUXyIXgIr0iioXWD6xFT0h+V7R7FCKkj+QZQpc5B1EGOUDblWrZ3iRH2qSrfrct2LFXtGSC4kMB4FTClyQxEbRmhpL/Sfedk/swWpm9IWXFt4k/Di2C5XYlgrHsaWz49iEw5G7opMWAuniSlUsseV/frWSQp40sZG+2kCumUdvZcXBZ4q9ooovOdANeuC/pzz1S3754TY20jlVNLHlf8rnXTXl6lcsxvESm4Y2Nxhtwk9tYeNTVVN/2xDrCCYCe9xstluTdFrNCmMZD19dyIVNtsBCH5yNbyORnsA3zS7ygy8Pbyo7jk2udUS5wMqJTa9zxvzbsZ7Wo+JaNvblXYNz53DxAssmNjJIILS+1dlq5oev5fVF0s6R7WONYxNq/7i9oqRUta1OqyvsIsuOiOMKCLhspZxHYmsqGMemXGDZNraiJ6Qwjk3qkZc5zfLeU+Jfy5TYSMF8QW9zE98lwvCDAaSvskrj2MQyiO9lmeLhTxAoi8DFSWziu+KaLTK6ETMIzWzlT2zMh6Z2Q+kzD8RSFVaGcms8/xVZDEOki3NBmHkgbOfgBwR555NxbLm2tJJ6RauHYrlJ5qRVIJM/80Bm3gM9Nr4j9ttSdOF4/yM+faoaLUyTcGETnmm/s57JT2zkGIUOOMWZB4ovKSyJIRf+5Nnzi6qvbbLUMiVc6aVN0WamyVJdmH74aj2c2PRtQa5Yr6h8AKI1cvUrnjmHEhulfBZJZS72QGv0psTmLtIJFRA60w+/RDGxCbNeloz5p5MwFaZgcE8+uzDzQC6xHd6v9Jtcu1HBphqcMf/Ofo80ClB6PnlwqH6Vz2HynUexwLKJjXSD5gIu6UGTurkd+YMa+dkzBeOcyDhC9vC0U22zNxWSWmELDoQ+9A7KR+Aj2jqX3+AkdPIeqJSjekW11U0WplEcTykU4Ihe0Vhoe0saQsqfpYV9gh3hOfl+WFtvYYHlTvuiJ2TxxKbwPiUfegcLrPwOUuoVPfCdyrrmyxt5oqH49C9TvweqDP+FQKUELkZiq+sLWwecjM5cretveZaceCWOaSt7YivPODatbiYZ2ollZx4EUwvbkezMA/47+uy0vYqiqzuWnkQzBYlN+KvXUUtrq+hs2hBmHsw9z808cGVnHtiUZh7w3ZrC93J9gzMW2DsqsfEzDwLLLBkqRNt7l0ufeSAsLJkdPyd8rBu9yYVofPh2f0OTrXloay7KzbqEoWzC6h4RfnWP+cntjM/r4NswtIovoR3C6h7G467uwS/NmhtbVniNFENSwZuKX4eTG799OOQdTmx04cyDWCC/T1k5AGnk6lcszOHEpnwWKR6OpW06bLP3M41mpnVqZD03pq3KuuaLpqdnpprJdAFHp2vN5RJ7dYsUmLSjpOY28xsUaU3jmGub87OsiR+dbRpkR3xesRv0RImNZ5nzjjU0mWuzK95pG4Zi/mjSNeTQddiFn4bGvKqRqV/SMCZ/DhcrsGxiM3Sy6cCilyHx3Wz0xkO5gYl81BD+1OgcXucWCuaK0oxzP7QT6+mw1Daa89M/Gaiws2s1GqT3tVjvh99BtIZx9nrZNqutttHcYA8/IbNT8zpGZStFmHmwHrF1k9kSOjt7Rxw/yu/IMbKdIUNCC84cfuaB0kuIcMo1aGcazdXiNx8++0bIxFXa0hlMLUiJrXiB5U77Yidk0cSm+D6VKXCRdxA/82AnPjzYT2YeWKd6XWNkWCdf1Cf857OG6e9dTi8UJDbF+hVrs+AjBb+EQNkFLkZioz9ZG3iZGt3ITGykHwa3WlrEL4tKia3O87mwtEfu31R34cq08pTlSWy0hrZ1eoVxMJx/JWLLaydgbm/NbnOh7eRskO0NFvaKUlpmkPyVH3J0cHUPsvQGWd2jX5yXR2tySzmkZoOsUVgCgHwoG4wz+34yYzExOcOOFK7uIdPGRsbe8at77KT9m3GXd7fkXlG56w05dn5lk+xCEk5xhD7ZC7+CLlmOpGAFXeWXVBk9I/x69MdbQVfmin7Eh6nilYCSSWwail/dg9QUmRY6PCiNGBNGMUp9iAd2KlO/GrKCSeEgs2ikTWjqUz6L5M9eymCaic2SNUcOLviSXUxhJUXWIt5JzS1HeqXVeoskNsrSs5LJXZjF6z1ZLCO7rAxZQ2TEKS2SfKLERtG19vAT4bTPpgqDdbHQJJeZeFLZ+lU+h5ULLJvYaE3T2PByKkDeDonJmfnh/GmzRq9rPc0bbtlmYoWre5AvPLZgkq/QwvTPOHpZstrLwl7eJBXiKfsO6u9h43PbnLAUy+R03juIvES+UgpW91g/sLqHbGKji77E0Dwd8x0oMN3fQ44i7V/fH3aGc6t7kN8XKbDcaS+s7iF7Qp4ssVGyBVb8HCYfknmre4yLq3NXdy9NbqYDOynf+v7w0BKZIp3rFVWuX/GtofDGPPA5gP9C4IQCFyOx4W0AAQhAAAIQgAAErrIAEtsJo+5VPmlw7BCAAAQgAAEInLEAEhsSGwQgAAEIQAACEFC7ABKb2mvojCN8/u5q7eywb03mZ2aqcAjzGRvarV65UvnWenI3ZTpQpBO85MAW8F8IQAACEIDAeQogsZ2nfn48wmMIQAACEIAABCCgJHDWiU2pHPg9BCAAAQhAAAIQgICSABIb2tggAAEIQAACEICA2gWQ2NReQ0pZG7+HAAQgAAEIQODqCJxDYqN6F39Mvnvzc/SrP3ZTWHgQAhCAAAQgAAEIQOAogXNIbCQO0ze6/NE3v/z1M5nbOKLRCwIQgAAEIAABCECgQOCcEhtFk5a2xDcj2oLSXJ22TRwpBCAAAQhAAAIQKF0AiQ2REQIQgAAEIAABCKhd4PwS2+//8n3iW7dO7UClh188EwIQgAAEIAABCFRI4NwSm0Y3sZ74df1x94cYynbUYMMK1T02CwEIQAACEIDARRE4v8RGMZ2Pv/1H8v3b5E8vrMxF8UI5IQABCEAAAhCAwNkLnF9iQxsbmtYgAAEIQAACEIBAaQLnltgojGMrrYbOPsVjjxCAAAQgAAEIqE3g/BIbVvdAYoMABCAAAQhAAAKlCSCxYbIqBCAAAQhAAAIQULvAOSU23POgtECttiZZlAcCEIAABCAAgXMROIfExt9X9P2bn2O4r+i5VDl2CgEIQAACEIDAhRM4h8R24YxQYAhAAAIQgAAEIHC+Akhsau+3Pt/zA3uHAAQgAAEIQEANAkhsSGwQgAAEIAABCEBA7QJIbGqvITXkepQBAhCAAAQgAIHzFUBiQ2KDAAQgAAEIQAACahdAYlN7DZ1vosfeIQABCEAAAhBQg0DlEttN9/a7t4lfv9/+y2c6pCIIQAACEIAABCAAgZMLVC6xkTJRptGvfn4XedyuhnCKMkAAAhCAAAQgAIELKlDZxKahSEvb98FPKSzxDwEIQAACEIAABCBwUoFKJ7YbSGwXNMuj2BCAAAQgAAEIqEeg0ont+sh/vfuR7Ucbm3qqHCWBAAQgAAEIQODCCVQ6sTFdwZ/e/LD4men6haNBgSEAAQhAAAIQgIBKBCqd2GiN7g//+4d3b5Pv366OoqVNJbWOYkAAAhCAAAQgcLEEKp3Y0MZ28nm8F+tMQmkhAAEIQAACEKicQKUTG8axIbFBAAIQgAAEIACB0wpUOrFhruhpa6hyaR1bhgAEIAABCEDgoghUOrFhPTYkNghAAAIQgAAEIHBagcomNtzz4KIkd5QTAhCAAAQgAAE1C1QuseG+oqdN02o+b1A2CEAAAhCAAATOUqByiQ15BQIQgAAEIAABCECgPAJIbOVxPMuUjX1BAAIQgAAEIHDVBJDYkNggAAEIQAACEICA2gWQ2NReQ1ftOwSOFwIQgAAEIACBwwJIbEhsEIAABCAAAQhAQO0CSGxqr6HDKRu/gQAEIAABCEDgqgmcNrFRvYs/Jt+9+Tn61R+7caP3q3b24HghAAEIQAACEDgbgdMmNlJK+kaXP/rml79+RqO9CgIQgAAEIAABCECg/ALlSGwUTVraEt+MaMtfvrPJrdgLBCAAAQhAAAIQULMAEhtSJgQgAAEIQAACEFC7QJkS2+//8n3iW7dO7Uer5uyMskEAAhCAAAQgAAElgfIkNo1uYj3x6/rj7g8xlI1CbIUABCAAAQhAAAJlFihTYqOYzsff/iP5/m3ypxdWRike4vcQgAAEIAABCEAAAicQKFNiQxsbmtYgAAEIQAACEIBAxQTKk9goxXFsTO1HN/Uf3cBSbSdI03gJBCAAAQhAAAIQEATKlNgUV/f4ne+7929/XuzB+LaKhW6cyhCAAAQgAAEIXHqBCic2+tMXP7x/u/NlK/IKBCAAAQhAAAIQgMBJBcqR2Irc88D0ZST569fOG5c++eIAIQABCEAAAhCAQOUETpvY+PuKvn/zc0z2vqIfur55812gE12iJw3Ulat4bBkCEIAABCAAgQskcNrEdoEOFUWFAAQgAAEIQAACF1QAia3MC9xd0PMAxYYABCAAAQhAQM0CSGxIbBCAAAQgAAEIQEDtAkhsaq8hNed9lA0CEIAABCAAgbMRQGJDYoMABCAAAQhAAAJqF0BiU3sNnU1yx14gAAEIQAACEFCzQLkS2/WuP2/8/ed3b5M/+XAneKzlAQEIQAACEIAABMoqUKbEpp1YT7zbevy7Wiy9VtbqUXPYR9kgAAEIQAACEDgzgTIlto4vIwm0rqGDFQIQgAAEIAABCFREoIyJLeazVqSIZ5ZesSMIQAACEIAABCCgToFyJbbA3xOxP3UgsUEAAhCAAAQgAAEIlF+gHIkteyf4/3NHW/7yqTPnolQQgAAEIAABCEDgLAVOm9iEO8G/Tf7za1f7WZYb+4IABCAAAQhAAAJXR+C0iY1I0Td7/NE3v6CNDU2MEIAABCAAAQhAoCIC5UhsFK2xYhxbRarn6nx1wJFCAAIQgAAEIFBEoEyJjazugbmiCG0QgAAEIAABCECgIgJlTGxYj60iNVQkbuNPEIAABCAAAQhcEYEyJTbpngdY8R8CEIAABCAAAQhAoNwCZUps1PWuP3+D+4pekZiPw4QABCAAAQhA4IwFypXY0CEIAQhAAAIQgAAEIFApASS2SsmecfTG7iAAAQhAAAIQuMQCSGxIbBCAAAQgAAEIQEDtAkhsaq+hS/x1AYcGAQhAAAIQgECJAkhsSGwQgAAEIAABCEBA7QJIbGqvoRKjN54GAQhAAAIQgMAlFkBiq0Ric4xsZxb2yM/0kOFszp7qof3Q5lpzWVZ/MbKz0XivMV/G0rvCzU7bTnUstNO1w43f1h7aiLaT5QSuQHCs6gSHIFPg/MLjMQQgAAEIQODCC1Q0sTl7VlM9Vu21T3bdr9bqT3AlPtVLyrl3xhUPLc/XUvY761xhCNMafanQoqdapqiO4e0DT1Y6XYTIwk0OZuMd44ov7GX8PuehcKO0BbrCic1gmt66YzeXXh6ZZyomNuGgtG1BrjyJrSPsi+520qRqTrhBmdpUlJc5UrwcAhCAAAQgUG4BJLaSrsRnkNhC2yn/oqeWVLCtdyXl31ZVYitJ6YjsgsRW7nfvEeDYHQQgAAEIXCKBc0hs1ff23a+2bk3EHoQ590ZqYMJJCaA1dtPT/fvhtPt1xh1O9Lmc2YYr69aj1fjnwZR7Ndlzj7W/4tyrcatZL1yurt2Y6nqRHN3ITGyk7j6dZ+qkbFG0jU17Q//RzQ9p6clHPJBLbFrT87TQlyf96/c58i6i8m1s1db58ZVUaC8T2knNLYbbGmkNRdrYAsE112bM1khrWpdm19eGFzmxjU2vG9p6spkO7XGBzdjw7VzXZFWrZ4RsivOvRHq8+b2i2lr70vg6v5ftxPi0gw+CRY+R6e8JJvzRTGh7f3h6ay7XK2ruWc728B7sFW103mHJSxaiaf96rNearRGNcWqYjft2uIU9zr9OCpzt6OQT2/TM/Pg6ORb/8lqnMb+HVL6Nrco45VhMBsheUrPP53WMeBSKBaY1aGO7RJ9QeW8osepxdBCAAASupEBFE5uji41bzVqNde1BkGVE3+p7+xOv0wPD/RRFUx1rDzaSXWb+yl3jbPewBmt/nc5SZ2U/D3N371nI57V169HrRFeHvflpamJjv91sNzxLjT51XqNoTd2YPZy+7/Fcv2GhW8a6gulHT8ey+Y+S37twAdD/8du3yXdfO5kSrwe1Q7tzQU8tZetZTLpui9GEHNFxe0X7HZvc3PMpXZOZMfa3OedNTWJiez5m8iWnnRbddGJ2xmEVE1tV95Z/LzXudDQ02UzT+4Fo0tHBc9H9js2Mf3HeaLTobq/NRjML4ji2Kmt4Lpocdzp1TZaGbnZyOz09xEuKVXDoqPWm56mFzYi1w8Z0eFyb3MLekePY9Kbn6dBK2NRqqW2yG2+zNqs4Yq9jfnjaY+qwMU0241DElyuw07WTWdjZv2O3MUZn72I6tL7UkCuSXGJjxlzb6Vmfx2i0MB1jjuW0PzjG5/iiBW5lp9fXTLS2eSY+6z1Gz/IhFkQECEAAAhCAgFoEKprY5A+SJLbViL5G+Gt/1ytuYODwACntdU/KPe8hscy69Si8dZ2ir/XF3K/CDEWTVroX3mqKpu/F3S+XpCyo6Vh7tLFryG5Zfu8nS2zK1/JjJjZ6ajyaG68mbpZvY3vurLKu+Za3XOuJO60GMbHp24Lp0KJXbCSz9a5ksi151jX/XkKcH8A3+GUTm6GTJe1z0hD+hukEPwhPGYQv1fRQthaqB2OhoxOb2bbM+Z/n9iIey4G9kJF/T1x8XiRtbBmftz/7zNaluT0xffLZ9/A4NtK0ub6kk1Kddc0f3e1kaM3RBT5QDPwXAhCAAAQgcLEFziexCcGLv3LbrS/FtjTKfH04cvcV6RWdEH74WEYSGz9xgcxgeLlUR9HUwL47OF9NafVP09lnSi95Hb+lO8sqOWZiowwmXzIUTc8tRoZn5ttahXapbGLT0I7hzczCOttASYmNTNLMpRxKawpyC4skrVYPxRZ2IiaxY5dxxsW5oqTtTeqozT7YDGdzT6N3Opr969yMPRuejOzsXtJhFfsoO8J5vaICpsxcUWZw1x/l/Csxl3fJZhe7Pilaw/Tbnu/zvaLijoRJpnyv6OSg2ELJp668qaOH29hk+p0X9uI9TbTm6AKf5TmAfUEAAhCAAAQqLnBOiQUixToAACAASURBVO0laSo7kNiq+2KjG/Eum40ijWTa+i9SQkOaUmKj+cSWbYeTmmHO+sFxExs5tNpWp9UVdi2nQnvJYTL8S0xsFM3YvVarWZNLbLYiiS20syUltlqnNI6NdLzOCs1aMhr6WqOtgf9hGsWIRlbHyGvual0qJbFpKLqqqb9tiHUEE4E9bnZayH+kvzK0vtXZauYb+Uj554Q/nSixhRY9UmNhNl9SfGI7osAVf+fkCiODjL1DAAIQgAAEyiygnsSW7QYVR6EZWl5wE0Xb2GihVzS8JXawHodGe9Ngav9Qe5yXyF+Ytc3eVIhv9Dp0CSfJ6YnzcIevtFNb7zrnm+nPT2ziRqQ2Nn1bkFPsFY3uk5kKpGCkGOI4NtIrGmBlFxyRdl34gB4bJyulZVu/quyRwNG9ovlb0Bq9qdDKPJ/CSTdoLi/SY66dTF5iK9YrSgbGsVP5+Yz0im7nUqmIQ2uOLnB+8QoeU9qb+o9u1optk7ltytdvwWvxZAhAAAIQgMB5CagnsdH0vX13ONJcr9VQWvqTrYcbmSMTGz/zgHs4z+pbLPSN/ut9bI/HS5dw6T3uzIMi1UMat3Z2rUZDFS02WWULYOhk06HlJaPRXNtoyAYRxtnrZdusttpGc4M9/GRHGNOWa2MTdyQlNrpw5kEsIHVf0v2OdW7O66im6CqjZ3I7f+bBmi+anp6ZaiYD9h2drjWXSxw9Jo9DGsYCy6yOpjW0vXe5lJkHlrbpsM3ezzSamdapkXVpTBs56sCilyGRyGz0xkN7BYmNzDzoFmcerLB5Mw9ohkjGejostY3maiFRNY65tjk/y5paLYyx3zTIjvi8fC48ssBKSYvpYf/5NhnzWZWegN9DAAIQgAAE1CigosSmqbG1PI0/Wk0/epW8/4y99TR5VK8oASWre8wnHpHVPdKPXsZ67jnEVrpi3GVMbBrG0cvyy0+QNW/zV/egNcapkZV0iNz8QGwMo/t72PjcNkdW99hOTE47+SkFxRKbhuJX99gmi2UENveHB3MjxqqMZHWPwE7Kt77reC6NY+M7Xu1L4yupQJRfQ2Q50nvk4rfCYhk7af9m3OXdzfWKkva2wlFx0UgbiVMG00xslqw5wq+7EZxvltbdaBobXk4FyKYSkzPzw4W9osqre5CwaAsm+d3lbo1AVvfIW0NkxEkSKsm1SgWWj6TSycDc+duvbxPfuD+SfoMHEIAABCAAgQsgcA6JTWxGugA6KOplE6A/ffHD+x/ZfnHuLU5CCEAAAhCAwMUQQGK7GPV02ZLTES1hFauUji8jv3zrNlVs++d1XNgvBCAAAQhcdgEkNly8IQABCEAAAhCAgNoFkNjUXkNoXYMABCAAAQhAAAJIbEhsEIAABCAAAQhAQO0CSGxqryF8q4AABCAAAQhAAAJIbEhsEIAABCAAAQhAQO0CSGxqryF8q4AABCAAAQhAAAKXNbE5e1a5zz8Rbzpe4Rm/+oG/bP3w65vk+63H7cIp1emPvU2++/G7jT/9/jpOMghAAAIQgAAEIHBKgYomNmfPaqrHqr32ya771Vr9KWNTvXdgI9llPnAnKKUWsmKJjb4Xdwfnqym79SX3eZ/hlIIaqn1q5/0/VicMhbeqpLS/m/qvd29WR7FY66mFlWoZv4cABCAAAQhcFQEktlMnNrKM/rutxzcP55JOf+zNzpeGU0ZVvBwCEIAABCAAgSsvcOaJrWaqbyM1MB9/tJG+/8V8+4uUeyP1+T0biTs1dtPT/fvhtPt1xh1O9Lmc2TtI6ti7rzMTBT/7pnopUxvq70Xuvkq7X3Ojr+L2e/3XSKXybWzDU10vkqMb3OjLSMuNXONc0TY25sOPbuo/ul7KzUmzEY3+NPTDu60/yiS21j8jsUnVhAcQgAAEIAABCJxcoKKJzdHFxq1mrca69iDIMkI6JomNGxjuZwZ2R1+n+wbszL390Vdh8tcaZ7uHNVj763SWOiv7eZi7e8+Sa7iS7xXVMq6EeyPe3ecgr+rwdk1M8TnP2bOacYdjVpu9rmWsm+Xc8x4phFX37T545qmmbLdeJO0HxrrR/aGf37/9LtBaepYnL3m3/scbuaKKrzX8Ofrmuy+PsSnxhYc3hd9AAAIQgAAEIHCVBSqa2OSCJElsSWuLVqNj727Eb+loTcvSg43d5poDT9Ze96Tc8x6+wYz/k2xiqxmzr3J3h/OCXTb0kMT2wGUXqpYa2HeHSxtId+zExugHFr9P/hT6PXP4NKIG/vqPRNT3+5tSWDz8HPwGAhCAAAQgAAEIHClwLokt0X6D1tTP393gOzdvLN3fiBlIYjNfHxb6N8U+0BfebMcoRWtkE9sN9r78dAS+V7QvO1eUTH1Y3dKXvQWLHv068f5t8t33S39Q2Hj7yOo/3ybfv/3lr58Vzks4smLwBAhAAAIQgAAEICAJqCGxsUJiq+6LjW7Eu2w2iqQ3bf0XKfcpE5vY41mpxEYi4HXDfdLG9kKuja1WaGPrRRvbgQZU/BcCEIAABCAAgeMJqCexZbtBxQ5EQ8sLbiI/sdV5BzZS3R25CQQkdQq9ovnD3XK9orn12I6T2JgPTe2G4808OME4tutkfoNOpiNVitJ4AAEIQAACEIAABCQB9SQ2mr637w5Hmuu1GkpLf7L1cCNTkNgoZ0+Yuz/hqK7RXquRchs/82A13t3XT+ssdeap9uExcebBiRLbscex0ZoTzBX9aHor+f7N6qgYT4+XsqXKwwMIQAACEIAABK6IgIoSm6bG1vI0/mg1/ehV8v4z9tbTZEGvKB/j7oY5fpmP0lb3OEGv6IkS27HXY+v4MpJ8/z37KRLbFXmb4TAhAAEIQAACpxQ488RW9uH/579B+XseaJTvefCh65s3iW/dJjStQQACEIAABCAAgZIEkNhKYiqei495X1Hmzt9+/Z7tRwNbcVX8FQIQgAAEIAABSQCJrQyJTdLEAwhAAAIQgAAEIFAJASQ2JDYIQAACEIAABCCgdgEkNrXXUCVyOrYJAQhAAAIQgMDFEkBiQ2KDAAQgAAEIQAACahdAYlN7DV2sbwAoLQQgAAEIQAAClRBAYkNigwAEIAABCEAAAmoXQGJTew0p53Rt8zPO/Wzq2vmvSCdreL3rzxt///nd2+RPPivuxyVLhF9CAAIQgAAEShWoaGJz9qymeqxaclvPV2v1BcHC1v6Suz9sU44jpR7AeW9BuGO95zwWVztZYlMqsN4wzz1w2TX183c34u03Tu2vnVhPvNt6/Lta+tSbKjhzsDUIQAACEIDAVRRAYjtlrSsFoFNutpSXqzuxdXwZSaB1rZR6xHMgAAEIQAACRwucfWLr73qV4e8NKv3L9dnEO7vXeT7fSPX0TXW9SI5uZNyryR6bXkPR1balvmDy0QY3sZF+GNxqaSG/JD8t4Qcb8e57awOv0u4N7uE8W18jHnO90zqfeLSRmdhIP3oZa+/IvoQejrtfRrqexh+upkfDib57/blexdxLUvefzdfXiZuiaI01Mrqxa7KyfS/T7tfc6KvdFp1W/zRdeCCZR184jmzzo8zzdjblfp1xr6YevAg314t7KbL3OnuLZ//BKjexwT1id9s7DPxe8hOb4fpEYvTVrkEnSGqrrUt9wl7Cib5hRzXhKl7gom1s9HX9Rzf12uN0bpLEFvNZxaNDOxkEIAABCEAAAqcQqGhic3SxcatZq7GuPQiyTEEpFXpFSWLjRl/td9lsVI2+umVMz4ezur5w18BYfYuFvtFv8CTc4S29kMxawg9eZx7Ne+tqaE39lD3M3R228GlGr3+adrNh/Q1Ltc5e/wlryqYcmh6OT7zm7g6ToHbNvHR3I9VjFcKc5VaQG2XDzS0W2uzpecmNznv4oMNnDmtk9HX6UXDL0GK4VmOos47VZ5PWcdvY+rtecQ88U4zOTN/ob743r9cJmabI3i2mF2n3y4jJaqd1tvq+pa4BoTdZSmyG6xPxvLhGX+sIP9hI2u8563SWOiv7eTg9MCCwkNxW/0XK/eJwN66+2ZMcuGfT1HvsL3dN2VKJecsa+Hvy/Y/HurNWR+DvidifOsQtFNQ+fgkBCEAAAhCAwPEEKprYihRFObG9zpDRVEUu8PXegY1kVwvfmEQSW7LLnG1YIint2RjfZmY2veAePXXm2s/EDZLEthppzjbF6ZufcaPC4P0b7P3Xqe6ObGvfNVtkdGPfJDWAkcSW+2te8ZQCkMKx10z1bXCf9wmNZHnPKbJ3c/hh7hjzXkLxiW3eqy+MaxrKYJjnHnlyx17nSriD82L6PGaBBbfjJjb6Rpc/+uaX/3NHm19gPIYABCAAAQhA4IQC6ktsG+keazY2ScHo2g1P9wu+i/O10Jcqhie+V/RWtkFIe92Tcs97hJRW3bf7iPQhxuxfLJmsNim68b2iS2KDn5aZSLpZto6iNSSixVqkntDCCMX3isYMUpermP+Um6yU6sOg9yTdG+n7LyLdrvnmFjG6Ke+dGth3r0b0uT1KWyaJbWKDIx2s7BKTK9vhfufMxKuwdMgKbWzSZk/7gOpd/DH5/m3yn1+72qUaxAMIQAACEIAABE4joMLEJqaxXEYhPYkPn3nr6/nuyzrvwIb4HOXEpqHoa7r+5gG261li9DV3fzjbbscntvz4kpwoNbHtii1z+ZnmBE1W2uoWZ8u9sD2Ycr9OdgsD7E6c2F5FDGbSHfxgQhqQR7jE3uH8ogqPT1Dgwxs56jf0zR60seVO4KO48EwIQAACEIDAUQLnl9hY7r7r0Ooe/MwDqWsyG0WFbtBs1yetMa89lDooiyY2McnyGSU4T/MWpFc015ZmaHlRcq/oRpHE5j3R6h62dpZ7ONFPylnYpFfQJ1u8V5Tv0qVskUcbYvjje0VH5w+PVMtPbMcsMH1db2rX644z88CKcWwIahCAAAQgAIGyCZxXYiMzE91BlqnXX6vJ6wOVTWw1zp4wd9dlJz2bdf3tL9ITRyc2S7MrbLL10/VmumWq+2VuTJsw8+DBUw+jszB9kYcbKTs/HVVD2Y6YeSCf2Ojqe/vu1d2WG4aCA1FKynXO9i/YZrOtut5cZw3fXZXGtBXZuzjzoMNG62yMjW3vOzDzgNZQBv3T1MSrLT3fq3utY+3hRnpgYoq5YaFbHM331uzDfC7kS3W8AgsHctxxbBStwVxRpXMAv4cABCAAAQgcX+C8Eht9rcVrJytlZCZeH1zd42AbG0VT1qXPX6VHV1MPX+53DyyV0Ctq0Lti91/x299I3X2aW6qD7xXdavfEH5HVQ8jqHrnmsYL1Ndjr0pg2cXUPuV5RWlPnaJ8na5FMvC5hdY+a/lvP4g/C/OCzcKLP5RQnBNCaIns/enUPWlPn7HmVefR0jD+c7Ooe/AopqQfBSLvVLLY4HrPAwil1wsSG9djK9tUqV33Hf5PjtRCAAAQgcAkEzi2xnZedMPOATDXAT0UFpHseVHQv2DgEIAABCEDgagggsSG6VUjgetefv8F9RfHFAAIQgAAEIFAWASS2CuUVbBYCEIAABCAAAQiUTeDKJbay5NyiG7G3fLHW7ZH5uSXeKavoy8tWtdgLBCAAAQhAAAKXRgCJDQkJAhCAAAQgAAEIqF0AiU3tNXRpvhzgQCAAAQhAAAIQOLEAEhsSGwQgAAEIQAACEFC7ABKb2mvoxGEcL4QABCAAAQhA4NIIILEhsUHg+AJGdjaauNN6/BdemEWD9FaW8/ucJ/mka3Q6llOhvczCXnqkO++OJpSl0xf3RzMLe5m5mdxNOE6yiwvDeInPEBwaBCBw1gLnk9joe3F3cL6asltfSrdpOrsjL+feO8K+6G4nrTX6UoHgWNUFuJCQooYWPbl7LVyAMiucG43e6WjS0ZGfCRSeWfZjPFliO8cCH1vg5IlNN5MIra+ZmgzVjL7gHdG95Y/G73SYye/pU9TUxXvTneJgj11x2BcEIHBpBZDYDKf6in/xLh5IbOV4MyOxKSYJrel5OhScKshq/JOrh2Kh7TWj4gtLrpeL96Yr+dBOj4MtQAACl1dATYmtJfxgI959b23gVdq9wT2cZ+trsp901balvmDy0QY3sZF+GNxqadHzMctsCnIPXsQerHKPXiyZJuKPNriHT6eyrUc19hbP/sNV4SVrhhu5lpiibWzMhx/d1H90PXez0eJ1r3jxMDS7IrPbXGiPC2zGHHZLNhe2huei8WHn2vRmOhTlfCzbLDQ2tC4V9rKZbYukT4q/7Ol1Q1tPNtPCpoZvC7eBp6sHdwM7kTZGuhg4hje5Jy5xRzLFJpfSBdJXlfvx+xxiYNU2e5OhZbbNSYq9sMf5F1kdRWtou+35/tx2OrSXCW0nJmectdktaztZLhBke4MJ/w4X2o6P3JZ2nStwaCf55LmHEV5Cj7l2uGlfeHI9FdhJ+5bX2pqkSsm9JLAZk46RlI3xTEZTI4NTjsVkIJoJ7SRH7HpNEzubdxT8Ee3bGiUKpQeWTu/+3A45usBmfNxpF49dee+Utta+NL6SEnb95LmnQTiWvMRWZfRObqdnZxzCiVdlzBZ1IZqafT6vEyqoaIGrrfPjK6QbMbSTmlsMtx19ILTGHglEd212dnJdODF2rU20hjIYXZEn60JpU7NBtpnsXd8WTAeeH+jf1HeSTk+p9g+L8W1swaU7bDIQFc5h8da0/DncQ3ZHayj+CwDr4U9UbSebO7X4Ssn2itY69/PPuoJeUcZu9e37driFKDklOo3SKaF0jLRG8U13+CjwGwhAAAKXR+B8Elt13+6DZ55qynbrRdL+iRC/aE1L+MHrzKN5b10Nramfsoe5u8PZEFDXF+4aGKtvsdA3+g2ehDu8pSdhzmwKZkbnvYyZvbuRefh0qs68dH8jfktHayhLy3x6NBg2mG20jn/Jq7Vc/pPdezZV9Id+fv/2u0Cr8N8j/21lp9fXTLS2eSY+65UuitoGVzywHeu19zNNNqMz4osmelv5S1FreG4v42e9DTStaZxybUsZy9a7ws1NixmCdJ+lhvkxQFXdW/691LjT0dBkM03vB6R+QIYEoMnBbBthlXXNH923Za+jRU5QpTY2ktgWdtKzQW9zo76KsRhvO0nSop29Prazu7+hydLQzU7mCkwS20I04eg2ayi9bjoe2tkyCemTpJnU+FA/02hp6HDaXFPZlEMSW2ZhM8IHNUtnMBVaYYU/KR5jNrFxgc19h91WTetrW8fapIWIj9nJWDsUC+3s93bbapssum5P71B2KFWRvVd1r/mi6emZqWajhWl19vjYvGNM3GnVaoye8by4pmHGXNvpWZ/HaLQwHWOO5bQ/OJbrgJYvcL9jk5t7PqVrMjPG/jbnvOnoSuTTzF7av7xlbTVU0YaG7rFmkvPMbTNrPbcdOlJasvcAS7q/a537ofUstRhSyU4nB8W3nsx5rreS+JWadDkamuxt3nhIOrsUE5tw1mnbglxIboSAXBubxbqYDiyHO602xtjf6UuENteMUoepPRKQOUZaI/+mK3LO408QgAAELoPA+SQ28bJRKEgSW7LLLHzJ1uqfpt3Pxq4dvpbUewc2kl0tWj6xcXfvWTRUf9cr7vM+vYZy9oRT3R1aEv429k0kuvE/NVN9q6kea97X98ObFX5DHzOxyW6Hdo5sp8fFLKWhzLZlbm6GT2MksUlDr4T+o+zot4bpRGh9SUgwtUP7pP+IXLpIA0lo0Su2bNl6VzJi04jW9JyMSOP/xD/mL8/ytrlyFk9su525RjtR78Brcw0qXG48HN/m1CuMxLeu+ffiYhtM3kb4xDY7nW0j1LQuzWUH7xc5Rr6NbS+Ty7K5wtAa+QCUt8f8J1M0LxwmDYcFP0X2brAuciFWEC58FX+8jtvegrhG0YwrHlpfyu2CxOg8UtkC01Pj0VzyLixb4U7zi03STGq46ClddXs3G6OFRimG1jRNOYJLJobWNM4/icZ7jMrbp/jEtsKK7aPOESmslzGxdYTnovu5U4WeGt9J5SYrlHCMpXLl0+ExBCAAgYspoLLElm0hI70t1z0p97xHSGzXbni6XyQebWQmXgs/fCwjbWzcwIBBw89g6LNpNZSj+1W6x6ql+mLiM6WXZPhIV+QSVb4/GQ/32WWy3VJFrna5jjbSJerL9lhZelc4n1eaWKc1BbmFRW+22ca65ovyvYEkDKXHbxdpMpGOrlhiC63MZ6/QubPZbHRFZkmfrNjhlY2PfK+o1NdGEoCYROn+Oyvcwk5yOrjlcE01N4pBme8VHb8t/dczGeVcdq2GKnqMpFc0zT9NOgTxgWwAypVcfJr0m9b56Z1MaDM++TzcO+Rgsm05RfbuGN7mZmU7mkkVcyEy7TE1flvsLqRk+p0X8sOrfIENJl8yFE3PLUaGZ+bbWksbWEl6RWOdUnNU9hi1jD08yffhZnsho7ttNK0h8iTe1Q7FAlFynlTZI4EjhpSRXtG8vlTyrSM7dbTIOUyKcYw2tuqh2IHe0oW9TK7lT/4YD1WrVL94AAEIQOBSC1yIxEaa0B4+89bX84mkzjuwcXRic69G9OdVcyR7ifHlQBmKXe2EjlEb33QkNZ+QXyomNsp+Z5174rRU344EtiPZDrsDezz436KJbVlqzMteF2sHY4FonO+RJBfjZm8qlH2OcmIjezQ0dE/1zGxNb3IL25HswCw+seWux4xnck9IbEWPkR/HJt+YJB+Ail7RSW+vt9cXm9vJBBa9fDwtsvcjEtuTaYeRdAfH+DFkxIcMul8UBnXJFUOxwNraVqfVFXaRRTGSw9YSkjc/jo2ksfz6NbJPounpaSfDkFhcZY+EhMTGt/I+cdo6g4kRb2TO59RNJwKszOSAvK0VSWxLc1GpDVVr9KVD2WZXoTDHS2yhHeXzVvYY848XjyEAAQhcJYGLkNiEbtBsbymtMa89fH1EYtOY8ztYC69qR9Qu86Gp3VD6zAPZrdHOkR1pgFrh3osltmyfmnEoFtpca85uWU9GBcn3ipItk56+lfAdNu33OQ7OzqPNTJOl+sBFXUhdUitdrvzCzIMDie1AvCO9hAslJTbxqElGEVvISGLL+KSFuKxh356wpFnRYyyS2Bh+tF/RnsG8CCIWiT/kqtukjcqaHZivJJztFc0NRJO4pAZR2t67wonhj6/BbXE8n/Rk6cHRBbb1rnM5IqGojRamyXywcuXSDN8NmgtADdPxhWxi0+pmkgF2zbW+ZWr0jK9sDS8qtB1KRS3SK8ofe2+2R5XMYFg4aWLTdOQPEiioIFJxcseoVKH4PQQgAIFLL3AREluNsyfM3XXZSQ9pXX/7i/TEkYmNsrS8SLtfRkxWO62z1Vu91mfh5rpDl4Tc9Un8U1nGsVFafiR+fHjQ0dBk0VnHbN7dO8JSokUTm6Zp/kk0NbeZ36hGF46LjwX2ko78jEJeklkgDTNib6N4UPwEPS7XC5n3+9DOrtVoqKLzXyKb2GjGuR8ijWRaDaVlbm/5opmjE5t1fnjaY2y11DbajK6YXxovxSe2hZ39O3YbY3TeWU4rzDwoPMYiiY2MF+RmvY5aWlt4LGJtiocsvI0bhsJ3hpy6JnNtU781mFzYzI5pKyIszTzgx/I7rDPz2XHxUmKjyED4J1HuiZMfn9c45trm/CxrarUwxn7TIDviE1ry+CLJFphx9nrZNqutttHcYA8/yZtNwhebn+Gxd2gmrGyaIUMDk8NW0q9a1eqd3M6IiY20twWinJ+dqqbMtsV0KCo14spbaYTEtpeaJFNe+JkHO7HsvBbhKKbtVRRd3bFETr8TJzbKQgqzHrF125kmW7PdeycYzo2klD3Gwjq99B/QOEAIQAACksBFSGwUTVmXPn+VHl1NPXy53z2wdGSvKDm8OrK6x4NVbuI1N/oq/rnHw4hrhUgHL/OgPImNdAs2uyL8khyZ0HbyCRvuFNokiic2ytKzQuJX4aqw/NoT/Iobgc394UFbYXMLGfQmhY/8I1JKbBrG0UuWbCDj0sRJDEKPZ1Ls8cy7itM26/O4fyft307OBtme59JzlHtFW72uZbLkB1lEYz3mkFb9EHpFZ9hxfqUSmdU9ZI+xSGKjtMzgFr8WSWbhcKY5dGlnbq9N8ytf8AtJbFlbpc7HIsJahl/dg196g6xUcnh1Dw2lbXDuh6JxYTowWd2DTZCV/aNp/3psxJld9YOvGrkC0/09bHyOLATDr58yLa2fItTCcRIbpW927s5tpwPbqbnliG16N5BtY+Nnaexx00NkyB3jIm1vuWB0CIovqri6x2IysJcJbMbukEnB2RODuU3YQ/wp0Rs8ea8o2SC/uoe05Mqkz6OTWoWR2ERwSR4PIACBqyygpsSGj6eTCJChbPJTKU+ytbysVvaX84ntcJvfVX774dghAAEIQAACJQogsVUyo5Q99BRsUFvVaNE5Y/789REKnqCyQ0NiU3PtoGwQgAAEIKBuASQ2lcWa0k8Xso5XZmEn4Ro60E+q1iNCYiu9cvFMCEAAAhCAQKEAEpta801hPZXYZHrFn1ZrZ4d9azI/M+J9F6CaJwCuK/5+weFDAAIXSwCJDYkNAhCAAAQgAAEIqF0AiU3tNXSxvgGgtBCAAAQgAAEIVEIAiQ2JDQIQgAAEIAABCKhdAIlN7TVUiZyObUIAAhCAAAQgcLEEKpfYbrq3371N/Pr99l8+0yEVQQACEIAABCAAAQicXKByiY2UiTKNfvXzu8jj9osVY1FaCEAAAhCAAAQgoCqByiY2DUVa2r4PfkrlrSmgquNHYSAAAQhAAAIQgID6BSqd2G4gsan/JEAJIQABCEAAAhBQuUClE9v1kf969yPbjzY2lZ8HKB4EIAABCEAAAmoWqHRiY7qCP735YfEz03U1K6BsEIAABCAAAQhAQM0ClU5stEb3h//9w7u3yfdvV0fR0qbmUwFlgwAEIAABCEBAtQKVTmxoYzv5PF7VnjQoGAQgAAEIQAACZyxQ6cSGcWxIbBCAAAQgAAEIQOC0ApVObJgr6RxeVgAABeVJREFUetoaOuMIj91BAAIQgAAEIKBCgUonNqzHhsQGAQhAAAIQgAAETitQ2cSGex6oMKSjSBCAAAQgAAEIXDiByiU23Ff0tGn6wp1MKDAEIAABCEAAAhUSqFxiQ16BAAQgAAEIQAACECiPABJbeRwrFKixWQhAAAIQgAAEIKChaCQ2JDYIQAACEIAABCCgdgEkNrXXEL5YQAACEIAABCAAASQ2JDYIQAACEIAABCCgdgEkNrXXEL5VQAACEIAABCAAgdMmNqp38cfkuzc/R7/6Yzdu9I7zCQIQgAAEIAABCFRC4LSJjZSJvtHlj7755a+f0WivggAEIAABCEAAAhAov0A5EhtFk5a2xDcj2vKXrxIpFduEAAQgAAEIQAACF0sAiQ0pEwIQgAAEIAABCKhdoEyJ7fd/+T7xrVun9qO9WGkapYUABCAAAQhAAAKCQHkSm0Y3sZ74df1x94cYykYhtkIAAhCAAAQgAIEyC5QpsVFM5+Nv/5F8/zb50wsrgzgMAQhAAAIQgAAEIFBGgTIlNrSxoWkNAhCAAAQgAAEIVEygPImNwji2itVQGeM5NgUBCEAAAhCAwAUVKFNiw+oeSGwQgAAEIAABCECgYgJIbGUeGHhBkzuKDQEIQAACEICAmgXKkdhwz4OKBWo1nzooGwQgAAEIQAACZyZw2sTG31f0/ZufY7iv6JnVGXYEAQhAAAIQgMBVEzhtYrtqXjheCEAAAhCAAAQgcPYCSGwYxwYBCEAAAhCAAATULoDEpvYaOvsUjz1CAAIQgAAEIKA2ASQ2JDYIQAACEIAABCCgdgEkNrXXkNoyPsoDAQhAAAIQgMDZCyCxIbFBAAIQgAAEIAABtQuUnNjo/tDP79+Se71/M6JV+1GdffLFHiEAAQhAAAIQgEDlBEpObPwisdTAX/+RQGJDYIUABCAAAQhAAAJnKoDEdqbclYve2DIEIAABCEAAApdYAIkNiQ0CEIAABCAAAQioXQCJTe01dIm/LuDQIAABCEAAAhAoUQCJDYkNAhCAAAQgAAEIqF0AiU3tNVRi9MbTIAABCEAAAhC4xAJIbEhsEIAABCAAAQhAQO0CSGxqr6FL/HUBhwYBCEAAAhCAQIkCSGxIbBCAAAQgAAEIQEDtAkhsaq+hEqM3ngYBCEAAAhCAwCUWQGJDYoMABCAAAQhAAAJqFyg5sdH9oR/ekfuKJjaGcF9R/p5dlzjI49AgAAEIQAACEFCVQMmJDRkFAhCAAAQgAAEIQOCcBJDY1N4KqqqAj8JAAAIQgAAEIHAuAkhsSGwQgAAEIAABCEBA7QK5xHYugRE7hQAEIAABCEAAAhA4UgCJTe2Z+sgqxBMgAAEIQAACELj0AkhsSGwQgAAEIAABCEBA7QKFiY0e/Trx/s0vP0XYUcM5TYW49BkZBwgBCEAAAhCAAASOK1CY2EhKY/QDi98nf3phZY67LTwfAhCAAAQgAAEIQKASAocTG60hLW2/fjWAxKb2BtJKnBDYJgQgAAEIQAACKhSQTWx/+Crx61f3kdiQ2CAAAQhAAAIQgIAqBBQS2y/vkNhUmK9RJAhAAAIQgAAErqaAXGKj2qd23v34t9FW3D8U0y8gAAEIQAACEICACgRkExtd2xv4e+L92+T7rcftVzPJ4qghAAEIQAACEICAegRkE5vQxjbRqsVQNlV0XavndEFJIAABCEAAAhA4FwG5xEb/4Sv5cWxM7Uc39R/doFTQNnguWNgpBCAAAQhAAAIQOBcBhcQmP1f0d77v3r/9ebGHRssTBCAAAQhAAAIQgMDZCcgmNoX12OhPX/zw/u3Ol61oY4MABCAAAQhAAAIQOEOBw4mN+VDpngemLyPJX7923jiXxkDsFAIQgAAEIAABCFxZgcLElr2v6D9l7yv6oeubN98FOtEleoaB+sqelzhwCEAAAhCAAATyBQoTG7IIBCAAAQhAAAIQgID6BJDYzm7MYH5SxmMIQAACEIAABCBQugASGxIbBCAAAQhAAAIQULvA/w/8GN8GNakjmQAAAABJRU5ErkJggg==;" parent="1" vertex="1">
          <mxGeometry x="831" y="-2370" width="710.83" height="410" as="geometry" />
        </mxCell>
        <mxCell id="36" value="&lt;div&gt;&amp;nbsp; &amp;nbsp; &amp;nbsp; &amp;nbsp; name: 0.0.0.0_8080&lt;/div&gt;&lt;div&gt;&amp;nbsp; &amp;nbsp; &amp;nbsp; &amp;nbsp; address:&lt;/div&gt;&lt;div&gt;&amp;nbsp; &amp;nbsp; &amp;nbsp; &amp;nbsp; &amp;nbsp; socket_address:&lt;/div&gt;&lt;div&gt;&amp;nbsp; &amp;nbsp; &amp;nbsp; &amp;nbsp; &amp;nbsp; &amp;nbsp; address: 0.0.0.0&lt;/div&gt;&lt;div&gt;&amp;nbsp; &amp;nbsp; &amp;nbsp; &amp;nbsp; &amp;nbsp; &amp;nbsp; port_value: 8080&lt;/div&gt;" style="shape=document;whiteSpace=wrap;html=1;boundedLbl=1;fontSize=12;align=left;size=0.16666666666666666;" parent="1" vertex="1">
          <mxGeometry x="281" y="-1620.25" width="280" height="191.25" as="geometry" />
        </mxCell>
        <mxCell id="37" value="&lt;font color=&quot;#000000&quot;&gt;filter_chains&lt;br&gt;&lt;/font&gt;" style="rounded=1;whiteSpace=wrap;html=1;fillColor=none;strokeColor=#666666;fontColor=#333333;labelPosition=center;verticalLabelPosition=top;align=center;verticalAlign=bottom;spacingBottom=-50;" parent="1" vertex="1">
          <mxGeometry x="261" y="-1349.62" width="700" height="430" as="geometry" />
        </mxCell>
        <mxCell id="38" value="&lt;b&gt;http_connection_manager&lt;br&gt;&lt;/b&gt;&lt;br&gt;stat_prefix: outbound_0.0.0.0_8080&lt;br&gt;use_remote_address: false&lt;br&gt;stream_idle_timeout: 0s&lt;br&gt;delayed_close_timeout: 1s&lt;br&gt;bind_to_port: false" style="rounded=1;whiteSpace=wrap;html=1;fillColor=none;strokeColor=#666666;fontColor=#333333;labelPosition=center;verticalLabelPosition=top;align=center;verticalAlign=bottom;spacingBottom=-100;" parent="1" vertex="1">
          <mxGeometry x="1071" y="-1529.62" width="610" height="966" as="geometry" />
        </mxCell>
        <mxCell id="39" value="&lt;font color=&quot;#000000&quot;&gt;http_filters&lt;/font&gt;&lt;br&gt;&lt;font color=&quot;#000000&quot;&gt;&lt;br&gt;&lt;/font&gt;" style="rounded=1;whiteSpace=wrap;html=1;fillColor=none;strokeColor=#666666;fontColor=#333333;labelPosition=center;verticalLabelPosition=top;align=center;verticalAlign=bottom;spacingBottom=-50;" parent="1" vertex="1">
          <mxGeometry x="1116" y="-1409.62" width="535" height="580" as="geometry" />
        </mxCell>
        <mxCell id="40" value="http filter&lt;br&gt;&lt;br&gt;&quot;name&quot;: &quot;istio.alpn&quot;" style="rounded=0;whiteSpace=wrap;html=1;fillColor=#ffe6cc;strokeColor=#d79b00;" parent="1" vertex="1">
          <mxGeometry x="1286" y="-1009.6199999999999" width="230" height="65" as="geometry" />
        </mxCell>
        <mxCell id="41" value="http filter&lt;br&gt;&lt;br&gt;envoy.filters.http.cors" style="rounded=0;whiteSpace=wrap;html=1;fillColor=#ffe6cc;strokeColor=#d79b00;" parent="1" vertex="1">
          <mxGeometry x="1286" y="-1099.62" width="230" height="65" as="geometry" />
        </mxCell>
        <mxCell id="42" value="http filter&lt;br&gt;&lt;br&gt;envoy.filters.http.fault" style="rounded=0;whiteSpace=wrap;html=1;fillColor=#ffe6cc;strokeColor=#d79b00;" parent="1" vertex="1">
          <mxGeometry x="1286" y="-1189.62" width="230" height="65" as="geometry" />
        </mxCell>
        <mxCell id="43" value="http filter&lt;br&gt;&lt;br&gt;istio.stats" style="rounded=0;whiteSpace=wrap;html=1;fillColor=#ffe6cc;strokeColor=#d79b00;" parent="1" vertex="1">
          <mxGeometry x="1286" y="-1279.62" width="230" height="65" as="geometry" />
        </mxCell>
        <mxCell id="44" value="" style="endArrow=classic;html=1;rounded=0;fontSize=12;dashed=1;dashPattern=1 2;startArrow=none;" parent="1" source="45" target="38" edge="1">
          <mxGeometry width="50" height="50" relative="1" as="geometry">
            <mxPoint x="245" y="-1053.62" as="sourcePoint" />
            <mxPoint x="206" y="-1139.62" as="targetPoint" />
          </mxGeometry>
        </mxCell>
        <mxCell id="45" value="zoom in" style="aspect=fixed;html=1;points=[];align=center;image;fontSize=12;image=img/lib/azure2/general/Search.svg;fillColor=none;" parent="1" vertex="1">
          <mxGeometry x="993" y="-1009.6199999999999" width="39.38" height="40" as="geometry" />
        </mxCell>
        <mxCell id="46" value="" style="endArrow=none;html=1;rounded=0;fontSize=12;dashed=1;dashPattern=1 2;" parent="1" source="49" target="45" edge="1">
          <mxGeometry width="50" height="50" relative="1" as="geometry">
            <mxPoint x="161" y="-1058.4982010311478" as="sourcePoint" />
            <mxPoint x="196" y="-990.5574999999999" as="targetPoint" />
          </mxGeometry>
        </mxCell>
        <mxCell id="47" value="&lt;font color=&quot;#000000&quot;&gt;filter_chain&lt;/font&gt;&lt;br&gt;&lt;font color=&quot;#000000&quot;&gt;name: 0.0.0.0_8080&lt;br&gt;&lt;br&gt;&lt;/font&gt;" style="rounded=1;whiteSpace=wrap;html=1;fillColor=none;strokeColor=#666666;fontColor=#333333;labelPosition=center;verticalLabelPosition=top;align=center;verticalAlign=bottom;spacingBottom=-50;" parent="1" vertex="1">
          <mxGeometry x="326" y="-1249.62" width="595" height="300" as="geometry" />
        </mxCell>
        <mxCell id="48" value="&lt;div&gt;&lt;div&gt;- filter_chain_match:&lt;/div&gt;&lt;div&gt;&amp;nbsp; &amp;nbsp; transport_protocol: raw_buffer&lt;/div&gt;&lt;div&gt;&amp;nbsp; &amp;nbsp; application_protocols:&lt;/div&gt;&lt;div&gt;&amp;nbsp; &amp;nbsp; - http/1.0&lt;/div&gt;&lt;div&gt;&amp;nbsp; &amp;nbsp; - http/1.1&lt;/div&gt;&lt;div&gt;&amp;nbsp; &amp;nbsp; - h2c&lt;/div&gt;&lt;/div&gt;" style="shape=document;whiteSpace=wrap;html=1;boundedLbl=1;fontSize=12;fillColor=none;align=left;size=0.16666666666666666;" parent="1" vertex="1">
          <mxGeometry x="361" y="-1189.62" width="180" height="160" as="geometry" />
        </mxCell>
        <mxCell id="49" value="filter&lt;br&gt;&lt;br&gt;name: envoy.filters.network.http_connection_manager" style="rounded=0;whiteSpace=wrap;html=1;fillColor=#ffe6cc;strokeColor=#d79b00;" parent="1" vertex="1">
          <mxGeometry x="561" y="-1169.62" width="340" height="65" as="geometry" />
        </mxCell>
        <mxCell id="50" value="" style="endArrow=classic;html=1;rounded=0;dashed=1;dashPattern=1 2;fontSize=12;jumpStyle=arc;" parent="1" source="40" target="41" edge="1">
          <mxGeometry width="50" height="50" relative="1" as="geometry">
            <mxPoint x="1523.5" y="-1232.12" as="sourcePoint" />
            <mxPoint x="1573.5" y="-1282.12" as="targetPoint" />
          </mxGeometry>
        </mxCell>
        <mxCell id="51" value="" style="endArrow=classic;html=1;rounded=0;dashed=1;dashPattern=1 2;fontSize=12;jumpStyle=arc;" parent="1" source="41" target="42" edge="1">
          <mxGeometry width="50" height="50" relative="1" as="geometry">
            <mxPoint x="1523.5" y="-1232.12" as="sourcePoint" />
            <mxPoint x="1573.5" y="-1282.12" as="targetPoint" />
          </mxGeometry>
        </mxCell>
        <mxCell id="52" value="" style="endArrow=classic;html=1;rounded=0;dashed=1;dashPattern=1 2;fontSize=12;jumpStyle=arc;" parent="1" source="42" target="43" edge="1">
          <mxGeometry width="50" height="50" relative="1" as="geometry">
            <mxPoint x="1523.5" y="-1232.12" as="sourcePoint" />
            <mxPoint x="1573.5" y="-1282.12" as="targetPoint" />
          </mxGeometry>
        </mxCell>
        <mxCell id="53" value="" style="endArrow=classic;html=1;rounded=0;dashed=1;dashPattern=1 2;fontSize=12;jumpStyle=arc;" parent="1" source="54" target="40" edge="1">
          <mxGeometry width="50" height="50" relative="1" as="geometry">
            <mxPoint x="1523.5" y="-1142.12" as="sourcePoint" />
            <mxPoint x="1401" y="-944.6199999999999" as="targetPoint" />
          </mxGeometry>
        </mxCell>
        <mxCell id="54" value="http filter&lt;br&gt;&lt;br&gt;&quot;name&quot;: &quot;istio.metadata_exchange&quot;" style="rounded=0;whiteSpace=wrap;html=1;fillColor=#ffe6cc;strokeColor=#d79b00;" parent="1" vertex="1">
          <mxGeometry x="1286" y="-919.6199999999999" width="230" height="65" as="geometry" />
        </mxCell>
        <UserObject label="http filter&lt;br&gt;&lt;br&gt;envoy.filters.http.router" tooltip="envoy.extensions.filters.http.router.v3.Router" id="55">
          <mxCell style="rounded=0;whiteSpace=wrap;html=1;fillColor=#ffe6cc;strokeColor=#d79b00;" parent="1" vertex="1">
            <mxGeometry x="1286" y="-1369.62" width="230" height="65" as="geometry" />
          </mxCell>
        </UserObject>
        <mxCell id="56" value="" style="endArrow=classic;html=1;rounded=0;dashed=1;dashPattern=1 2;fontSize=12;jumpStyle=arc;" parent="1" target="55" edge="1">
          <mxGeometry width="50" height="50" relative="1" as="geometry">
            <mxPoint x="1401" y="-1279.62" as="sourcePoint" />
            <mxPoint x="1573.5" y="-1372.12" as="targetPoint" />
          </mxGeometry>
        </mxCell>
        <mxCell id="57" value="&lt;font color=&quot;#000000&quot;&gt;listener_filters&lt;br&gt;&lt;/font&gt;" style="rounded=1;whiteSpace=wrap;html=1;fillColor=none;strokeColor=#666666;fontColor=#333333;labelPosition=center;verticalLabelPosition=top;align=center;verticalAlign=bottom;spacingBottom=-50;" parent="1" vertex="1">
          <mxGeometry x="-491" y="-1557.62" width="570" height="322.5" as="geometry" />
        </mxCell>
        <mxCell id="58" value="envoy.filters.listener.tls_inspector" style="rounded=0;whiteSpace=wrap;html=1;fillColor=#ffe6cc;strokeColor=#d79b00;" parent="1" vertex="1">
          <mxGeometry x="-381" y="-1460.12" width="340" height="65" as="geometry" />
        </mxCell>
        <mxCell id="59" value="envoy.filters.listener.http_inspector" style="rounded=0;whiteSpace=wrap;html=1;fillColor=#ffe6cc;strokeColor=#d79b00;" parent="1" vertex="1">
          <mxGeometry x="-381" y="-1337.62" width="340" height="65" as="geometry" />
        </mxCell>
        <mxCell id="60" value="" style="endArrow=classic;html=1;rounded=0;fontSize=12;dashed=1;dashPattern=1 2;startArrow=none;" parent="1" source="58" target="59" edge="1">
          <mxGeometry width="50" height="50" relative="1" as="geometry">
            <mxPoint x="-1316" y="-1255.7868016869593" as="sourcePoint" />
            <mxPoint x="-1411" y="-1271.0659362863066" as="targetPoint" />
          </mxGeometry>
        </mxCell>
        <mxCell id="61" value="&lt;font color=&quot;#000000&quot;&gt;default_filter_chain&lt;br&gt;name: PassthroughFilterChain&lt;br&gt;&lt;/font&gt;" style="rounded=1;whiteSpace=wrap;html=1;fillColor=none;strokeColor=#666666;fontColor=#333333;labelPosition=center;verticalLabelPosition=top;align=center;verticalAlign=bottom;spacingBottom=-50;" parent="1" vertex="1">
          <mxGeometry x="-496" y="-1200.12" width="570" height="415" as="geometry" />
        </mxCell>
        <mxCell id="62" value="istio.stats" style="rounded=0;whiteSpace=wrap;html=1;fillColor=#ffe6cc;strokeColor=#d79b00;" parent="1" vertex="1">
          <mxGeometry x="-386" y="-1102.62" width="340" height="65" as="geometry" />
        </mxCell>
        <mxCell id="63" value="envoy.filters.network.tcp_proxy" style="rounded=0;whiteSpace=wrap;html=1;fillColor=#ffe6cc;strokeColor=#d79b00;" parent="1" vertex="1">
          <mxGeometry x="-386" y="-980.1199999999999" width="340" height="65" as="geometry" />
        </mxCell>
        <mxCell id="64" value="" style="endArrow=classic;html=1;rounded=0;fontSize=12;dashed=1;dashPattern=1 2;startArrow=none;" parent="1" source="62" target="63" edge="1">
          <mxGeometry width="50" height="50" relative="1" as="geometry">
            <mxPoint x="-1321" y="-898.2868016869593" as="sourcePoint" />
            <mxPoint x="-1416" y="-913.5659362863066" as="targetPoint" />
          </mxGeometry>
        </mxCell>
        <mxCell id="65" value="" style="endArrow=classic;html=1;rounded=0;dashed=1;dashPattern=1 2;fontSize=12;jumpStyle=arc;edgeStyle=orthogonalEdgeStyle;" parent="1" source="5" target="2" edge="1">
          <mxGeometry width="50" height="50" relative="1" as="geometry">
            <mxPoint x="815.172894736842" y="490" as="sourcePoint" />
            <mxPoint x="2000" y="-670" as="targetPoint" />
          </mxGeometry>
        </mxCell>
        <mxCell id="66" value="" style="endArrow=classic;html=1;rounded=0;fontSize=12;dashed=1;dashPattern=1 2;startArrow=none;edgeStyle=orthogonalEdgeStyle;" parent="1" source="55" target="31" edge="1">
          <mxGeometry width="50" height="50" relative="1" as="geometry">
            <mxPoint x="216" y="-1050.2868016869593" as="sourcePoint" />
            <mxPoint x="121" y="-1065.5659362863066" as="targetPoint" />
          </mxGeometry>
        </mxCell>
        <mxCell id="67" value="" style="endArrow=classic;html=1;rounded=0;dashed=1;dashPattern=1 2;fontSize=12;jumpStyle=arc;exitX=0.003;exitY=0.818;exitDx=0;exitDy=0;exitPerimeter=0;edgeStyle=orthogonalEdgeStyle;" parent="1" source="2" target="58" edge="1">
          <mxGeometry width="50" height="50" relative="1" as="geometry">
            <mxPoint x="181" y="-1269.62" as="sourcePoint" />
            <mxPoint x="-159.0000000000009" y="-1254.62" as="targetPoint" />
            <Array as="points">
              <mxPoint x="-558" y="-748.6199999999999" />
              <mxPoint x="-558" y="-1427.62" />
            </Array>
          </mxGeometry>
        </mxCell>
        <mxCell id="68" value="" style="endArrow=classic;html=1;rounded=0;dashed=1;dashPattern=1 2;fontSize=12;jumpStyle=arc;edgeStyle=orthogonalEdgeStyle;startArrow=none;" parent="1" source="92" target="49" edge="1">
          <mxGeometry width="50" height="50" relative="1" as="geometry">
            <mxPoint x="221" y="-1104.31" as="sourcePoint" />
            <mxPoint x="1322" y="-875.6199999999999" as="targetPoint" />
            <Array as="points" />
          </mxGeometry>
        </mxCell>
        <mxCell id="69" value="&lt;font color=&quot;#000000&quot;&gt;dynamic_route_configs&lt;br&gt;&lt;/font&gt;" style="rounded=1;whiteSpace=wrap;html=1;fillColor=#f5f5f5;strokeColor=#666666;fontColor=#333333;labelPosition=center;verticalLabelPosition=top;align=center;verticalAlign=bottom;spacingBottom=-50;" parent="1" vertex="1">
          <mxGeometry x="1816" y="-2337" width="825" height="1834.62" as="geometry" />
        </mxCell>
        <mxCell id="70" value="&lt;font color=&quot;#000000&quot;&gt;route_config&lt;br&gt;&lt;/font&gt;" style="rounded=1;whiteSpace=wrap;html=1;fillColor=none;strokeColor=#666666;fontColor=#333333;labelPosition=center;verticalLabelPosition=top;align=center;verticalAlign=bottom;spacingBottom=-50;" parent="1" vertex="1">
          <mxGeometry x="1871" y="-2257" width="688" height="1741.62" as="geometry" />
        </mxCell>
        <mxCell id="74" value="List" style="swimlane;fontStyle=0;childLayout=stackLayout;horizontal=1;startSize=30;horizontalStack=0;resizeParent=1;resizeParentMax=0;resizeLast=0;collapsible=1;marginBottom=0;rounded=0;shadow=1;fillColor=#fff2cc;strokeColor=#d6b656;html=1;" parent="1" vertex="1">
          <mxGeometry x="1921" y="-2182" width="600" height="1650" as="geometry">
            <mxRectangle x="4500" y="-395" width="50" height="30" as="alternateBounds" />
          </mxGeometry>
        </mxCell>
        <mxCell id="75" value="&amp;nbsp; &amp;nbsp; &amp;nbsp; &quot;@type&quot;: type.googleapis.com/envoy.config.route.v3.RouteConfiguration&lt;br&gt;&lt;font color=&quot;#ff3333&quot;&gt;&amp;nbsp; &amp;nbsp; &amp;nbsp; name: &#39;8080&#39;&lt;br&gt;&lt;/font&gt;&amp;nbsp; &amp;nbsp; &amp;nbsp; virtual_hosts:&lt;br&gt;&amp;nbsp; &amp;nbsp; &amp;nbsp; - name: allow_any&lt;br&gt;&amp;nbsp; &amp;nbsp; &amp;nbsp; &amp;nbsp; domains:&lt;br&gt;&amp;nbsp; &amp;nbsp; &amp;nbsp; &amp;nbsp; - &quot;*&quot;&lt;br&gt;&amp;nbsp; &amp;nbsp; &amp;nbsp; &amp;nbsp; routes:&lt;br&gt;&amp;nbsp; &amp;nbsp; &amp;nbsp; &amp;nbsp; - match:&lt;br&gt;&amp;nbsp; &amp;nbsp; &amp;nbsp; &amp;nbsp; &amp;nbsp; &amp;nbsp; prefix: &quot;/&quot;&lt;br&gt;&amp;nbsp; &amp;nbsp; &amp;nbsp; &amp;nbsp; &amp;nbsp; route:&lt;br&gt;&amp;nbsp; &amp;nbsp; &amp;nbsp; &amp;nbsp; &amp;nbsp; &amp;nbsp; cluster: PassthroughCluster&lt;br&gt;&amp;nbsp; &amp;nbsp; &amp;nbsp; &amp;nbsp; &amp;nbsp; &amp;nbsp; timeout: 0s&lt;br&gt;&amp;nbsp; &amp;nbsp; &amp;nbsp; &amp;nbsp; &amp;nbsp; &amp;nbsp; max_grpc_timeout: 0s&lt;br&gt;&amp;nbsp; &amp;nbsp; &amp;nbsp; &amp;nbsp; &amp;nbsp; name: allow_any&lt;br&gt;&amp;nbsp; &amp;nbsp; &amp;nbsp; &amp;nbsp; include_request_attempt_count: true&lt;br&gt;&amp;nbsp; &amp;nbsp; &amp;nbsp; - name: fortio-server-l2.default.svc.cluster.local:8080&lt;br&gt;&amp;nbsp; &amp;nbsp; &amp;nbsp; &amp;nbsp; &lt;font color=&quot;#ff3333&quot;&gt;domains&lt;/font&gt;:&lt;br&gt;&amp;nbsp; &amp;nbsp; &amp;nbsp; &amp;nbsp; - fortio-server-l2.default.svc.cluster.local&lt;br&gt;&amp;nbsp; &amp;nbsp; &amp;nbsp; &amp;nbsp; - fortio-server-l2.default.svc.cluster.local:8080&lt;br&gt;&amp;nbsp; &amp;nbsp; &amp;nbsp; &amp;nbsp; - fortio-server-l2.default&lt;br&gt;&amp;nbsp; &amp;nbsp; &amp;nbsp; &amp;nbsp; - fortio-server-l2.default:8080&lt;br&gt;&amp;nbsp; &amp;nbsp; &amp;nbsp; &amp;nbsp; - fortio-server-l2.default.svc&lt;br&gt;&amp;nbsp; &amp;nbsp; &amp;nbsp; &amp;nbsp; - fortio-server-l2.default.svc:8080&lt;br&gt;&amp;nbsp; &amp;nbsp; &amp;nbsp; &amp;nbsp; - 10.104.5.115&lt;br&gt;&amp;nbsp; &amp;nbsp; &amp;nbsp; &amp;nbsp; - 10.104.5.115:8080&lt;br&gt;&amp;nbsp; &amp;nbsp; &amp;nbsp; &amp;nbsp; routes:&lt;br&gt;&amp;nbsp; &amp;nbsp; &amp;nbsp; &amp;nbsp; - match:&lt;br&gt;&amp;nbsp; &amp;nbsp; &amp;nbsp; &amp;nbsp; &amp;nbsp; &amp;nbsp; prefix: &quot;/&quot;&lt;br&gt;&amp;nbsp; &amp;nbsp; &amp;nbsp; &amp;nbsp; &amp;nbsp; route:&lt;br&gt;&amp;nbsp; &amp;nbsp; &amp;nbsp; &amp;nbsp; &amp;nbsp; &amp;nbsp; cluster: &lt;font color=&quot;#ff3333&quot;&gt;outbound|8080||fortio-server-l2.default.svc.cluster.local&lt;/font&gt;&lt;br&gt;&amp;nbsp; &amp;nbsp; &amp;nbsp; &amp;nbsp; &amp;nbsp; &amp;nbsp; timeout: 0s&lt;br&gt;&amp;nbsp; &amp;nbsp; &amp;nbsp; &amp;nbsp; &amp;nbsp; &amp;nbsp; retry_policy:&lt;br&gt;&amp;nbsp; &amp;nbsp; &amp;nbsp; &amp;nbsp; &amp;nbsp; &amp;nbsp; &amp;nbsp; retry_on: connect-failure,refused-stream,unavailable,cancelled,retriable-status-codes&lt;br&gt;&amp;nbsp; &amp;nbsp; &amp;nbsp; &amp;nbsp; &amp;nbsp; &amp;nbsp; &amp;nbsp; num_retries: 2&lt;br&gt;&amp;nbsp; &amp;nbsp; &amp;nbsp; &amp;nbsp; &amp;nbsp; &amp;nbsp; &amp;nbsp; retry_host_predicate:&lt;br&gt;&amp;nbsp; &amp;nbsp; &amp;nbsp; &amp;nbsp; &amp;nbsp; &amp;nbsp; &amp;nbsp; - name: envoy.retry_host_predicates.previous_hosts&lt;br&gt;&amp;nbsp; &amp;nbsp; &amp;nbsp; &amp;nbsp; &amp;nbsp; &amp;nbsp; &amp;nbsp; host_selection_retry_max_attempts: &#39;5&#39;&lt;br&gt;&amp;nbsp; &amp;nbsp; &amp;nbsp; &amp;nbsp; &amp;nbsp; &amp;nbsp; &amp;nbsp; retriable_status_codes:&lt;br&gt;&amp;nbsp; &amp;nbsp; &amp;nbsp; &amp;nbsp; &amp;nbsp; &amp;nbsp; &amp;nbsp; - 503&lt;br&gt;&amp;nbsp; &amp;nbsp; &amp;nbsp; &amp;nbsp; &amp;nbsp; &amp;nbsp; max_grpc_timeout: 0s&lt;br&gt;&amp;nbsp; &amp;nbsp; &amp;nbsp; &amp;nbsp; &amp;nbsp; metadata:&lt;br&gt;&amp;nbsp; &amp;nbsp; &amp;nbsp; &amp;nbsp; &amp;nbsp; &amp;nbsp; filter_metadata:&lt;br&gt;&amp;nbsp; &amp;nbsp; &amp;nbsp; &amp;nbsp; &amp;nbsp; &amp;nbsp; &amp;nbsp; istio:&lt;br&gt;&amp;nbsp; &amp;nbsp; &amp;nbsp; &amp;nbsp; &amp;nbsp; &amp;nbsp; &amp;nbsp; &amp;nbsp; config: &quot;/apis/networking.istio.io/v1alpha3/namespaces/default/virtual-service/fortio-server-l2&quot;&lt;br&gt;&amp;nbsp; &amp;nbsp; &amp;nbsp; &amp;nbsp; &amp;nbsp; decorator:&lt;br&gt;&amp;nbsp; &amp;nbsp; &amp;nbsp; &amp;nbsp; &amp;nbsp; &amp;nbsp; operation: fortio-server-l2.default.svc.cluster.local:8080/*&lt;br&gt;&amp;nbsp; &amp;nbsp; &amp;nbsp; &amp;nbsp; include_request_attempt_count: true&lt;br&gt;&amp;nbsp; &amp;nbsp; &amp;nbsp; - name: fortio-server-l2.default.svc.cluster.local:8080&lt;br&gt;&amp;nbsp; &amp;nbsp; &amp;nbsp; &amp;nbsp; domains:&lt;br&gt;&amp;nbsp; &amp;nbsp; &amp;nbsp; &amp;nbsp; - fortio-server-l2. -mark.svc.cluster.local&lt;br&gt;&amp;nbsp; &amp;nbsp; &amp;nbsp; &amp;nbsp; - fortio-server-l2. -mark.svc.cluster.local:8080&lt;br&gt;&amp;nbsp; &amp;nbsp; &amp;nbsp; &amp;nbsp; - fortio-server-l2&lt;br&gt;&amp;nbsp; &amp;nbsp; &amp;nbsp; &amp;nbsp; - fortio-server-l2:8080&lt;br&gt;&amp;nbsp; &amp;nbsp; &amp;nbsp; &amp;nbsp; - fortio-server-l2. -mark.svc&lt;br&gt;&amp;nbsp; &amp;nbsp; &amp;nbsp; &amp;nbsp; - fortio-server-l2. -mark.svc:8080&lt;br&gt;&amp;nbsp; &amp;nbsp; &amp;nbsp; &amp;nbsp; - fortio-server-l2. -mark&lt;br&gt;&amp;nbsp; &amp;nbsp; &amp;nbsp; &amp;nbsp; - fortio-server-l2. -mark:8080&lt;br&gt;&amp;nbsp; &amp;nbsp; &amp;nbsp; &amp;nbsp; - 10.111.47.7&lt;br&gt;&amp;nbsp; &amp;nbsp; &amp;nbsp; &amp;nbsp; - 10.111.47.7:8080&lt;br&gt;&amp;nbsp; &amp;nbsp; &amp;nbsp; &amp;nbsp; routes:&lt;br&gt;&amp;nbsp; &amp;nbsp; &amp;nbsp; &amp;nbsp; - match:&lt;br&gt;&amp;nbsp; &amp;nbsp; &amp;nbsp; &amp;nbsp; &amp;nbsp; &amp;nbsp; prefix: &quot;/&quot;&lt;br&gt;&amp;nbsp; &amp;nbsp; &amp;nbsp; &amp;nbsp; &amp;nbsp; route:&lt;br&gt;&amp;nbsp; &amp;nbsp; &amp;nbsp; &amp;nbsp; &amp;nbsp; &amp;nbsp; cluster: outbound|8080||fortio-server-l2. -mark.svc.cluster.local&lt;br&gt;&amp;nbsp; &amp;nbsp; &amp;nbsp; &amp;nbsp; &amp;nbsp; &amp;nbsp; timeout: 0s&lt;br&gt;&amp;nbsp; &amp;nbsp; &amp;nbsp; &amp;nbsp; &amp;nbsp; &amp;nbsp; retry_policy:&lt;br&gt;&amp;nbsp; &amp;nbsp; &amp;nbsp; &amp;nbsp; &amp;nbsp; &amp;nbsp; &amp;nbsp; retry_on: connect-failure,refused-stream,unavailable,cancelled,retriable-status-codes&lt;br&gt;&amp;nbsp; &amp;nbsp; &amp;nbsp; &amp;nbsp; &amp;nbsp; &amp;nbsp; &amp;nbsp; num_retries: 2&lt;br&gt;&amp;nbsp; &amp;nbsp; &amp;nbsp; &amp;nbsp; &amp;nbsp; &amp;nbsp; &amp;nbsp; retry_host_predicate:&lt;br&gt;&amp;nbsp; &amp;nbsp; &amp;nbsp; &amp;nbsp; &amp;nbsp; &amp;nbsp; &amp;nbsp; - name: envoy.retry_host_predicates.previous_hosts&lt;br&gt;&amp;nbsp; &amp;nbsp; &amp;nbsp; &amp;nbsp; &amp;nbsp; &amp;nbsp; &amp;nbsp; host_selection_retry_max_attempts: &#39;5&#39;&lt;br&gt;&amp;nbsp; &amp;nbsp; &amp;nbsp; &amp;nbsp; &amp;nbsp; &amp;nbsp; &amp;nbsp; retriable_status_codes:&lt;br&gt;&amp;nbsp; &amp;nbsp; &amp;nbsp; &amp;nbsp; &amp;nbsp; &amp;nbsp; &amp;nbsp; - 503&lt;br&gt;&amp;nbsp; &amp;nbsp; &amp;nbsp; &amp;nbsp; &amp;nbsp; &amp;nbsp; max_stream_duration:&lt;br&gt;&amp;nbsp; &amp;nbsp; &amp;nbsp; &amp;nbsp; &amp;nbsp; &amp;nbsp; &amp;nbsp; max_stream_duration: 0s&lt;br&gt;&amp;nbsp; &amp;nbsp; &amp;nbsp; &amp;nbsp; &amp;nbsp; &amp;nbsp; &amp;nbsp; grpc_timeout_header_max: 0s&lt;br&gt;&amp;nbsp; &amp;nbsp; &amp;nbsp; &amp;nbsp; &amp;nbsp; decorator:&lt;br&gt;&amp;nbsp; &amp;nbsp; &amp;nbsp; &amp;nbsp; &amp;nbsp; &amp;nbsp; operation: fortio-server-l2. -mark.svc.cluster.local:8080/*&lt;br&gt;&amp;nbsp; &amp;nbsp; &amp;nbsp; &amp;nbsp; &amp;nbsp; name: default&lt;br&gt;&amp;nbsp; &amp;nbsp; &amp;nbsp; &amp;nbsp; include_request_attempt_count: true&lt;br&gt;&amp;nbsp; &amp;nbsp; &amp;nbsp; - name: fortio-server.mark.svc.cluster.local:8080&lt;br&gt;&amp;nbsp; &amp;nbsp; &amp;nbsp; &amp;nbsp; domains:&lt;br&gt;&amp;nbsp; &amp;nbsp; &amp;nbsp; &amp;nbsp; - fortio-server. -mark.svc.cluster.local&lt;br&gt;&amp;nbsp; &amp;nbsp; &amp;nbsp; &amp;nbsp; - fortio-server. -mark.svc.cluster.local:8080&lt;br&gt;&amp;nbsp; &amp;nbsp; &amp;nbsp; &amp;nbsp; - fortio-server&lt;br&gt;&amp;nbsp; &amp;nbsp; &amp;nbsp; &amp;nbsp; - fortio-server:8080&lt;br&gt;&amp;nbsp; &amp;nbsp; &amp;nbsp; &amp;nbsp; - fortio-server. -mark.svc&lt;br&gt;&amp;nbsp; &amp;nbsp; &amp;nbsp; &amp;nbsp; - fortio-server. -mark.svc:8080&lt;br&gt;&amp;nbsp; &amp;nbsp; &amp;nbsp; &amp;nbsp; - fortio-server. -mark&lt;br&gt;&amp;nbsp; &amp;nbsp; &amp;nbsp; &amp;nbsp; - fortio-server. -mark:8080&lt;br&gt;&amp;nbsp; &amp;nbsp; &amp;nbsp; &amp;nbsp; - 10.97.117.127&lt;br&gt;&amp;nbsp; &amp;nbsp; &amp;nbsp; &amp;nbsp; - 10.97.117.127:8080&lt;br&gt;&amp;nbsp; &amp;nbsp; &amp;nbsp; &amp;nbsp; routes:&lt;br&gt;&amp;nbsp; &amp;nbsp; &amp;nbsp; &amp;nbsp; - match:&lt;br&gt;&amp;nbsp; &amp;nbsp; &amp;nbsp; &amp;nbsp; &amp;nbsp; &amp;nbsp; prefix: &quot;/&quot;&lt;br&gt;&amp;nbsp; &amp;nbsp; &amp;nbsp; &amp;nbsp; &amp;nbsp; route:&lt;br&gt;&amp;nbsp; &amp;nbsp; &amp;nbsp; &amp;nbsp; &amp;nbsp; &amp;nbsp; cluster: outbound|8080||fortio-server. -mark.svc.cluster.local&lt;br&gt;&amp;nbsp; &amp;nbsp; &amp;nbsp; &amp;nbsp; &amp;nbsp; &amp;nbsp; timeout: 0s&lt;br&gt;&amp;nbsp; &amp;nbsp; &amp;nbsp; &amp;nbsp; &amp;nbsp; &amp;nbsp; retry_policy:&lt;br&gt;&amp;nbsp; &amp;nbsp; &amp;nbsp; &amp;nbsp; &amp;nbsp; &amp;nbsp; &amp;nbsp; retry_on: connect-failure,refused-stream,unavailable,cancelled,retriable-status-codes&lt;br&gt;&amp;nbsp; &amp;nbsp; &amp;nbsp; &amp;nbsp; &amp;nbsp; &amp;nbsp; &amp;nbsp; num_retries: 2&lt;br&gt;&amp;nbsp; &amp;nbsp; &amp;nbsp; &amp;nbsp; &amp;nbsp; &amp;nbsp; &amp;nbsp; retry_host_predicate:&lt;br&gt;&amp;nbsp; &amp;nbsp; &amp;nbsp; &amp;nbsp; &amp;nbsp; &amp;nbsp; &amp;nbsp; - name: envoy.retry_host_predicates.previous_hosts&lt;br&gt;&amp;nbsp; &amp;nbsp; &amp;nbsp; &amp;nbsp; &amp;nbsp; &amp;nbsp; &amp;nbsp; host_selection_retry_max_attempts: &#39;5&#39;&lt;br&gt;&amp;nbsp; &amp;nbsp; &amp;nbsp; &amp;nbsp; &amp;nbsp; &amp;nbsp; &amp;nbsp; retriable_status_codes:&lt;br&gt;&amp;nbsp; &amp;nbsp; &amp;nbsp; &amp;nbsp; &amp;nbsp; &amp;nbsp; &amp;nbsp; - 503&lt;br&gt;&amp;nbsp; &amp;nbsp; &amp;nbsp; &amp;nbsp; &amp;nbsp; &amp;nbsp; max_stream_duration:&lt;br&gt;&amp;nbsp; &amp;nbsp; &amp;nbsp; &amp;nbsp; &amp;nbsp; &amp;nbsp; &amp;nbsp; max_stream_duration: 0s&lt;br&gt;&amp;nbsp; &amp;nbsp; &amp;nbsp; &amp;nbsp; &amp;nbsp; &amp;nbsp; &amp;nbsp; grpc_timeout_header_max: 0s&lt;br&gt;&amp;nbsp; &amp;nbsp; &amp;nbsp; &amp;nbsp; &amp;nbsp; decorator:&lt;br&gt;&amp;nbsp; &amp;nbsp; &amp;nbsp; &amp;nbsp; &amp;nbsp; &amp;nbsp; operation: fortio-server. -mark.svc.cluster.local:8080/*&lt;br&gt;&amp;nbsp; &amp;nbsp; &amp;nbsp; &amp;nbsp; &amp;nbsp; name: default&lt;br&gt;&amp;nbsp; &amp;nbsp; &amp;nbsp; &amp;nbsp; include_request_attempt_count: true&lt;br&gt;&amp;nbsp; &amp;nbsp; &amp;nbsp; validate_clusters: false" style="text;strokeColor=#d6b656;fillColor=#fff2cc;align=left;verticalAlign=middle;spacingLeft=4;spacingRight=4;overflow=hidden;points=[[0,0.5],[1,0.5]];portConstraint=eastwest;rotatable=0;rounded=0;html=1;" parent="74" vertex="1">
          <mxGeometry y="30" width="600" height="1620" as="geometry" />
        </mxCell>
        <mxCell id="84" value="follow route rule&lt;br&gt;&lt;span style=&quot;color: rgb(255 , 51 , 51) ; text-align: left&quot;&gt;route_config_name: &#39;8080&#39;&lt;/span&gt;" style="endArrow=none;dashed=1;html=1;dashPattern=1 3;strokeWidth=2;rounded=0;fontSize=12;fillColor=#e1d5e7;strokeColor=#9673a6;" parent="1" source="85" target="75" edge="1">
          <mxGeometry width="50" height="50" relative="1" as="geometry">
            <mxPoint x="-29" y="-2257.62" as="sourcePoint" />
            <mxPoint x="170.9999999999991" y="-1263.6471052631578" as="targetPoint" />
          </mxGeometry>
        </mxCell>
        <mxCell id="85" value="&lt;div&gt;&amp;nbsp; &amp;nbsp; &amp;nbsp; &amp;nbsp; &amp;nbsp; &amp;nbsp; &amp;nbsp; rds:&lt;/div&gt;&lt;div&gt;&amp;nbsp; &amp;nbsp; &amp;nbsp; &amp;nbsp; &amp;nbsp; &amp;nbsp; &amp;nbsp; &amp;nbsp; config_source:&lt;/div&gt;&lt;div&gt;&amp;nbsp; &amp;nbsp; &amp;nbsp; &amp;nbsp; &amp;nbsp; &amp;nbsp; &amp;nbsp; &amp;nbsp; &amp;nbsp; ads: {}&lt;/div&gt;&lt;div&gt;&amp;nbsp; &amp;nbsp; &amp;nbsp; &amp;nbsp; &amp;nbsp; &amp;nbsp; &amp;nbsp; &amp;nbsp; &amp;nbsp; initial_fetch_timeout: 0s&lt;/div&gt;&lt;div&gt;&amp;nbsp; &amp;nbsp; &amp;nbsp; &amp;nbsp; &amp;nbsp; &amp;nbsp; &amp;nbsp; &amp;nbsp; &amp;nbsp; resource_api_version: V3&lt;/div&gt;&lt;div&gt;&lt;font color=&quot;#ff3333&quot;&gt;&amp;nbsp; &amp;nbsp; &amp;nbsp; &amp;nbsp; &amp;nbsp; &amp;nbsp; &amp;nbsp; &amp;nbsp; route_config_name: &#39;8080&#39;&lt;/font&gt;&lt;/div&gt;" style="shape=document;whiteSpace=wrap;html=1;boundedLbl=1;fontSize=12;align=left;size=0.16666666666666666;fillColor=#d5e8d4;strokeColor=#82b366;" parent="1" vertex="1">
          <mxGeometry x="1354" y="-793.6199999999999" width="280" height="191.25" as="geometry" />
        </mxCell>
        <object label="&lt;font style=&quot;font-size: 30px&quot;&gt;%page%&lt;/font&gt;" placeholders="1" a="b" id="90">
          <mxCell style="text;html=1;strokeColor=none;fillColor=#FFCCFF;align=center;verticalAlign=middle;whiteSpace=wrap;rounded=1;glass=0;sketch=1;shadow=0;fontStyle=2;fontSize=16;" parent="1" vertex="1">
            <mxGeometry x="751.83" y="980" width="618.17" height="80" as="geometry" />
          </mxCell>
        </object>
        <mxCell id="92" value="FilterChainManager&#xa;Filter Chain selector" style="strokeWidth=2;outlineConnect=0;dashed=0;align=center;fontSize=12;fillColor=#c0f5a9;verticalLabelPosition=bottom;verticalAlign=top;shape=mxgraph.eip.content_based_router;" parent="1" vertex="1">
          <mxGeometry x="120" y="-1431.19" width="150" height="90" as="geometry" />
        </mxCell>
        <mxCell id="93" value="" style="endArrow=classic;html=1;rounded=0;dashed=1;dashPattern=1 2;fontSize=12;jumpStyle=arc;edgeStyle=orthogonalEdgeStyle;endFill=1;" parent="1" source="59" target="92" edge="1">
          <mxGeometry width="50" height="50" relative="1" as="geometry">
            <mxPoint x="-41" y="-1305" as="sourcePoint" />
            <mxPoint x="739" y="-1169.62" as="targetPoint" />
            <Array as="points">
              <mxPoint x="100" y="-1327" />
              <mxPoint x="100" y="-1386" />
            </Array>
          </mxGeometry>
        </mxCell>
      </root>
    </mxGraphModel>
  </diagram>
</mxfile>
